# Hooked tunnel rib used as a mirrored solid lane compressor.
o LaneRib
v -0.760 -1.000 -0.720
v 0.760 -1.000 -0.720
v 0.520 0.420 -0.620
v -0.520 0.420 -0.620
v -0.760 -1.000 0.720
v 0.760 -1.000 0.720
v 0.520 0.420 0.620
v -0.520 0.420 0.620
v -0.320 1.000 -0.500
v 0.320 1.000 -0.500
v -0.320 1.000 0.500
v 0.320 1.000 0.500
f 1 2 3
f 1 3 4
f 5 7 6
f 5 8 7
f 1 5 6
f 1 6 2
f 2 6 7
f 2 7 3
f 1 4 8
f 1 8 5
f 4 3 10
f 4 10 9
f 8 11 12
f 8 12 7
f 4 9 11
f 4 11 8
f 3 7 12
f 3 12 10
f 9 10 12
f 9 12 11
