# Tall precision silhouette with an unmistakable forward lance.
o SniperBody
v 0.000 0.820 -0.180
v 0.460 0.000 -0.220
v 0.000 -0.820 -0.180
v -0.460 0.000 -0.220
v 0.000 0.520 0.880
v 0.360 0.000 0.920
v 0.000 -0.520 0.880
v -0.360 0.000 0.920
f 1 2 5
f 2 6 5
f 2 3 6
f 3 7 6
f 3 4 7
f 4 8 7
f 4 1 8
f 1 5 8
f 5 6 7
f 5 7 8
f 1 4 3
f 1 3 2
o SniperLance
v -0.120 0.120 -2.000
v 0.120 0.120 -2.000
v 0.120 -0.120 -2.000
v -0.120 -0.120 -2.000
v -0.180 0.180 -0.100
v 0.180 0.180 -0.100
v 0.180 -0.180 -0.100
v -0.180 -0.180 -0.100
f 9 10 11
f 9 11 12
f 13 15 14
f 13 16 15
f 9 13 14
f 9 14 10
f 10 14 15
f 10 15 11
f 11 15 16
f 11 16 12
f 12 16 13
f 12 13 9
o SniperFin
v -0.070 0.420 0.420
v 0.070 0.420 0.420
v 0.070 1.420 0.980
v -0.070 1.420 0.980
v -0.070 -0.420 0.420
v 0.070 -0.420 0.420
v 0.070 -1.420 0.980
v -0.070 -1.420 0.980
f 17 18 19
f 17 19 20
f 21 23 22
f 21 24 23
f 17 21 22
f 17 22 18
f 18 22 23
f 18 23 19
f 19 23 24
f 19 24 20
f 20 24 21
f 20 21 17
