# Wide delta interceptor: front is local -Z.
o InterceptorBody
v 0.000 0.000 -1.500
v 0.000 0.360 -0.300
v 0.480 0.180 0.820
v 0.480 -0.180 0.820
v 0.000 -0.360 -0.300
v -0.480 -0.180 0.820
v -0.480 0.180 0.820
v 0.000 0.000 1.100
f 1 3 2
f 1 4 3
f 1 5 4
f 1 6 5
f 1 7 6
f 1 2 7
f 2 3 8
f 3 4 8
f 4 5 8
f 5 6 8
f 6 7 8
f 7 2 8
o InterceptorLeftWing
v -0.280 0.090 -0.480
v -2.050 0.040 0.180
v -1.350 0.020 0.940
v -0.340 0.060 0.620
v -0.280 -0.090 -0.480
v -2.050 -0.040 0.180
v -1.350 -0.020 0.940
v -0.340 -0.060 0.620
f 9 10 11
f 9 11 12
f 13 15 14
f 13 16 15
f 9 13 14
f 9 14 10
f 10 14 15
f 10 15 11
f 11 15 16
f 11 16 12
f 12 16 13
f 12 13 9
o InterceptorRightWing
v 0.280 0.090 -0.480
v 2.050 0.040 0.180
v 1.350 0.020 0.940
v 0.340 0.060 0.620
v 0.280 -0.090 -0.480
v 2.050 -0.040 0.180
v 1.350 -0.020 0.940
v 0.340 -0.060 0.620
f 17 19 18
f 17 20 19
f 21 22 23
f 21 23 24
f 17 18 22
f 17 22 21
f 18 19 23
f 18 23 22
f 19 20 24
f 19 24 23
f 20 17 21
f 20 21 24
