# Bounded authored geometry; flat face normals; explicit palette material.
mtllib RailHazardBlock.mtl
o RailHazardBlock
usemtl surface
v -0.721600 -1.000000 -0.880000
v 0.721600 -1.000000 -0.880000
v 0.880000 -1.000000 -0.721600
v 0.880000 -1.000000 0.721600
v 0.721600 -1.000000 0.880000
v -0.721600 -1.000000 0.880000
v -0.880000 -1.000000 0.721600
v -0.880000 -1.000000 -0.721600
vt 0.562500 0.5
vt 0.562500 0.5
vt 0.562500 0.5
vt 0.562500 0.5
vt 0.562500 0.5
vt 0.562500 0.5
vt 0.562500 0.5
vt 0.562500 0.5
vn 0.000000 -1.000000 0.000000
vn 0.000000 -1.000000 0.000000
vn 0.000000 -1.000000 0.000000
vn 0.000000 -1.000000 0.000000
vn 0.000000 -1.000000 0.000000
vn 0.000000 -1.000000 0.000000
vn 0.000000 -1.000000 0.000000
vn 0.000000 -1.000000 0.000000
f 1/1/1 2/2/2 3/3/3
f 1/1/1 3/3/3 4/4/4
f 1/1/1 4/4/4 5/5/5
f 1/1/1 5/5/5 6/6/6
f 1/1/1 6/6/6 7/7/7
f 1/1/1 7/7/7 8/8/8
v -0.880000 1.000000 -0.721600
v -0.880000 1.000000 0.721600
v -0.721600 1.000000 0.880000
v 0.721600 1.000000 0.880000
v 0.880000 1.000000 0.721600
v 0.880000 1.000000 -0.721600
v 0.721600 1.000000 -0.880000
v -0.721600 1.000000 -0.880000
vt 0.187500 0.5
vt 0.187500 0.5
vt 0.187500 0.5
vt 0.187500 0.5
vt 0.187500 0.5
vt 0.187500 0.5
vt 0.187500 0.5
vt 0.187500 0.5
vn 0.000000 1.000000 0.000000
vn 0.000000 1.000000 0.000000
vn 0.000000 1.000000 0.000000
vn 0.000000 1.000000 0.000000
vn 0.000000 1.000000 0.000000
vn 0.000000 1.000000 0.000000
vn 0.000000 1.000000 0.000000
vn 0.000000 1.000000 0.000000
f 9/9/9 10/10/10 11/11/11
f 9/9/9 11/11/11 12/12/12
f 9/9/9 12/12/12 13/13/13
f 9/9/9 13/13/13 14/14/14
f 9/9/9 14/14/14 15/15/15
f 9/9/9 15/15/15 16/16/16
v -0.721600 -1.000000 -0.880000
v -0.820000 -0.820000 -1.000000
v 0.820000 -0.820000 -1.000000
v 0.721600 -1.000000 -0.880000
vt 0.062500 0.5
vt 0.062500 0.5
vt 0.062500 0.5
vt 0.062500 0.5
vn 0.000000 -0.554700 -0.832050
vn 0.000000 -0.554700 -0.832050
vn 0.000000 -0.554700 -0.832050
vn 0.000000 -0.554700 -0.832050
f 17/17/17 18/18/18 19/19/19
f 17/17/17 19/19/19 20/20/20
v 0.721600 -1.000000 -0.880000
v 0.820000 -0.820000 -1.000000
v 1.000000 -0.820000 -0.820000
v 0.880000 -1.000000 -0.721600
vt 0.187500 0.5
vt 0.187500 0.5
vt 0.187500 0.5
vt 0.187500 0.5
vn 0.536660 -0.651147 -0.536660
vn 0.536660 -0.651147 -0.536660
vn 0.536660 -0.651147 -0.536660
vn 0.536660 -0.651147 -0.536660
f 21/21/21 22/22/22 23/23/23
f 21/21/21 23/23/23 24/24/24
v 0.880000 -1.000000 -0.721600
v 1.000000 -0.820000 -0.820000
v 1.000000 -0.820000 0.820000
v 0.880000 -1.000000 0.721600
vt 0.312500 0.5
vt 0.312500 0.5
vt 0.312500 0.5
vt 0.312500 0.5
vn 0.832050 -0.554700 0.000000
vn 0.832050 -0.554700 0.000000
vn 0.832050 -0.554700 0.000000
vn 0.832050 -0.554700 0.000000
f 25/25/25 26/26/26 27/27/27
f 25/25/25 27/27/27 28/28/28
v 0.880000 -1.000000 0.721600
v 1.000000 -0.820000 0.820000
v 0.820000 -0.820000 1.000000
v 0.721600 -1.000000 0.880000
vt 0.437500 0.5
vt 0.437500 0.5
vt 0.437500 0.5
vt 0.437500 0.5
vn 0.536660 -0.651147 0.536660
vn 0.536660 -0.651147 0.536660
vn 0.536660 -0.651147 0.536660
vn 0.536660 -0.651147 0.536660
f 29/29/29 30/30/30 31/31/31
f 29/29/29 31/31/31 32/32/32
v 0.721600 -1.000000 0.880000
v 0.820000 -0.820000 1.000000
v -0.820000 -0.820000 1.000000
v -0.721600 -1.000000 0.880000
vt 0.562500 0.5
vt 0.562500 0.5
vt 0.562500 0.5
vt 0.562500 0.5
vn 0.000000 -0.554700 0.832050
vn 0.000000 -0.554700 0.832050
vn 0.000000 -0.554700 0.832050
vn 0.000000 -0.554700 0.832050
f 33/33/33 34/34/34 35/35/35
f 33/33/33 35/35/35 36/36/36
v -0.721600 -1.000000 0.880000
v -0.820000 -0.820000 1.000000
v -1.000000 -0.820000 0.820000
v -0.880000 -1.000000 0.721600
vt 0.062500 0.5
vt 0.062500 0.5
vt 0.062500 0.5
vt 0.062500 0.5
vn -0.536660 -0.651147 0.536660
vn -0.536660 -0.651147 0.536660
vn -0.536660 -0.651147 0.536660
vn -0.536660 -0.651147 0.536660
f 37/37/37 38/38/38 39/39/39
f 37/37/37 39/39/39 40/40/40
v -0.880000 -1.000000 0.721600
v -1.000000 -0.820000 0.820000
v -1.000000 -0.820000 -0.820000
v -0.880000 -1.000000 -0.721600
vt 0.187500 0.5
vt 0.187500 0.5
vt 0.187500 0.5
vt 0.187500 0.5
vn -0.832050 -0.554700 0.000000
vn -0.832050 -0.554700 0.000000
vn -0.832050 -0.554700 0.000000
vn -0.832050 -0.554700 0.000000
f 41/41/41 42/42/42 43/43/43
f 41/41/41 43/43/43 44/44/44
v -0.880000 -1.000000 -0.721600
v -1.000000 -0.820000 -0.820000
v -0.820000 -0.820000 -1.000000
v -0.721600 -1.000000 -0.880000
vt 0.312500 0.5
vt 0.312500 0.5
vt 0.312500 0.5
vt 0.312500 0.5
vn -0.536660 -0.651147 -0.536660
vn -0.536660 -0.651147 -0.536660
vn -0.536660 -0.651147 -0.536660
vn -0.536660 -0.651147 -0.536660
f 45/45/45 46/46/46 47/47/47
f 45/45/45 47/47/47 48/48/48
v -0.820000 -0.820000 -1.000000
v -0.795400 0.100000 -0.970000
v 0.795400 0.100000 -0.970000
v 0.820000 -0.820000 -1.000000
vt 0.437500 0.5
vt 0.437500 0.5
vt 0.437500 0.5
vt 0.437500 0.5
vn 0.000000 0.032591 -0.999469
vn 0.000000 0.032591 -0.999469
vn 0.000000 0.032591 -0.999469
vn 0.000000 0.032591 -0.999469
f 49/49/49 50/50/50 51/51/51
f 49/49/49 51/51/51 52/52/52
v 0.820000 -0.820000 -1.000000
v 0.795400 0.100000 -0.970000
v 0.970000 0.100000 -0.795400
v 1.000000 -0.820000 -0.820000
vt 0.562500 0.5
vt 0.562500 0.5
vt 0.562500 0.5
vt 0.562500 0.5
vn 0.706485 0.041928 -0.706485
vn 0.706485 0.041928 -0.706485
vn 0.706485 0.041928 -0.706485
vn 0.706485 0.041928 -0.706485
f 53/53/53 54/54/54 55/55/55
f 53/53/53 55/55/55 56/56/56
v 1.000000 -0.820000 -0.820000
v 0.970000 0.100000 -0.795400
v 0.970000 0.100000 0.795400
v 1.000000 -0.820000 0.820000
vt 0.062500 0.5
vt 0.062500 0.5
vt 0.062500 0.5
vt 0.062500 0.5
vn 0.999469 0.032591 0.000000
vn 0.999469 0.032591 0.000000
vn 0.999469 0.032591 0.000000
vn 0.999469 0.032591 0.000000
f 57/57/57 58/58/58 59/59/59
f 57/57/57 59/59/59 60/60/60
v 1.000000 -0.820000 0.820000
v 0.970000 0.100000 0.795400
v 0.795400 0.100000 0.970000
v 0.820000 -0.820000 1.000000
vt 0.187500 0.5
vt 0.187500 0.5
vt 0.187500 0.5
vt 0.187500 0.5
vn 0.706485 0.041928 0.706485
vn 0.706485 0.041928 0.706485
vn 0.706485 0.041928 0.706485
vn 0.706485 0.041928 0.706485
f 61/61/61 62/62/62 63/63/63
f 61/61/61 63/63/63 64/64/64
v 0.820000 -0.820000 1.000000
v 0.795400 0.100000 0.970000
v -0.795400 0.100000 0.970000
v -0.820000 -0.820000 1.000000
vt 0.312500 0.5
vt 0.312500 0.5
vt 0.312500 0.5
vt 0.312500 0.5
vn 0.000000 0.032591 0.999469
vn 0.000000 0.032591 0.999469
vn 0.000000 0.032591 0.999469
vn 0.000000 0.032591 0.999469
f 65/65/65 66/66/66 67/67/67
f 65/65/65 67/67/67 68/68/68
v -0.820000 -0.820000 1.000000
v -0.795400 0.100000 0.970000
v -0.970000 0.100000 0.795400
v -1.000000 -0.820000 0.820000
vt 0.437500 0.5
vt 0.437500 0.5
vt 0.437500 0.5
vt 0.437500 0.5
vn -0.706485 0.041928 0.706485
vn -0.706485 0.041928 0.706485
vn -0.706485 0.041928 0.706485
vn -0.706485 0.041928 0.706485
f 69/69/69 70/70/70 71/71/71
f 69/69/69 71/71/71 72/72/72
v -1.000000 -0.820000 0.820000
v -0.970000 0.100000 0.795400
v -0.970000 0.100000 -0.795400
v -1.000000 -0.820000 -0.820000
vt 0.562500 0.5
vt 0.562500 0.5
vt 0.562500 0.5
vt 0.562500 0.5
vn -0.999469 0.032591 0.000000
vn -0.999469 0.032591 0.000000
vn -0.999469 0.032591 0.000000
vn -0.999469 0.032591 0.000000
f 73/73/73 74/74/74 75/75/75
f 73/73/73 75/75/75 76/76/76
v -1.000000 -0.820000 -0.820000
v -0.970000 0.100000 -0.795400
v -0.795400 0.100000 -0.970000
v -0.820000 -0.820000 -1.000000
vt 0.062500 0.5
vt 0.062500 0.5
vt 0.062500 0.5
vt 0.062500 0.5
vn -0.706485 0.041928 -0.706485
vn -0.706485 0.041928 -0.706485
vn -0.706485 0.041928 -0.706485
vn -0.706485 0.041928 -0.706485
f 77/77/77 78/78/78 79/79/79
f 77/77/77 79/79/79 80/80/80
v -0.795400 0.100000 -0.970000
v -0.820000 0.780000 -1.000000
v 0.820000 0.780000 -1.000000
v 0.795400 0.100000 -0.970000
vt 0.187500 0.5
vt 0.187500 0.5
vt 0.187500 0.5
vt 0.187500 0.5
vn 0.000000 -0.044075 -0.999028
vn 0.000000 -0.044075 -0.999028
vn 0.000000 -0.044075 -0.999028
vn 0.000000 -0.044075 -0.999028
f 81/81/81 82/82/82 83/83/83
f 81/81/81 83/83/83 84/84/84
v 0.795400 0.100000 -0.970000
v 0.820000 0.780000 -1.000000
v 1.000000 0.780000 -0.820000
v 0.970000 0.100000 -0.795400
vt 0.312500 0.5
vt 0.312500 0.5
vt 0.312500 0.5
vt 0.312500 0.5
vn 0.705970 -0.056685 -0.705970
vn 0.705970 -0.056685 -0.705970
vn 0.705970 -0.056685 -0.705970
vn 0.705970 -0.056685 -0.705970
f 85/85/85 86/86/86 87/87/87
f 85/85/85 87/87/87 88/88/88
v 0.970000 0.100000 -0.795400
v 1.000000 0.780000 -0.820000
v 1.000000 0.780000 0.820000
v 0.970000 0.100000 0.795400
vt 0.437500 0.5
vt 0.437500 0.5
vt 0.437500 0.5
vt 0.437500 0.5
vn 0.999028 -0.044075 0.000000
vn 0.999028 -0.044075 0.000000
vn 0.999028 -0.044075 0.000000
vn 0.999028 -0.044075 0.000000
f 89/89/89 90/90/90 91/91/91
f 89/89/89 91/91/91 92/92/92
v 0.970000 0.100000 0.795400
v 1.000000 0.780000 0.820000
v 0.820000 0.780000 1.000000
v 0.795400 0.100000 0.970000
vt 0.562500 0.5
vt 0.562500 0.5
vt 0.562500 0.5
vt 0.562500 0.5
vn 0.705970 -0.056685 0.705970
vn 0.705970 -0.056685 0.705970
vn 0.705970 -0.056685 0.705970
vn 0.705970 -0.056685 0.705970
f 93/93/93 94/94/94 95/95/95
f 93/93/93 95/95/95 96/96/96
v 0.795400 0.100000 0.970000
v 0.820000 0.780000 1.000000
v -0.820000 0.780000 1.000000
v -0.795400 0.100000 0.970000
vt 0.062500 0.5
vt 0.062500 0.5
vt 0.062500 0.5
vt 0.062500 0.5
vn 0.000000 -0.044075 0.999028
vn 0.000000 -0.044075 0.999028
vn 0.000000 -0.044075 0.999028
vn 0.000000 -0.044075 0.999028
f 97/97/97 98/98/98 99/99/99
f 97/97/97 99/99/99 100/100/100
v -0.795400 0.100000 0.970000
v -0.820000 0.780000 1.000000
v -1.000000 0.780000 0.820000
v -0.970000 0.100000 0.795400
vt 0.187500 0.5
vt 0.187500 0.5
vt 0.187500 0.5
vt 0.187500 0.5
vn -0.705970 -0.056685 0.705970
vn -0.705970 -0.056685 0.705970
vn -0.705970 -0.056685 0.705970
vn -0.705970 -0.056685 0.705970
f 101/101/101 102/102/102 103/103/103
f 101/101/101 103/103/103 104/104/104
v -0.970000 0.100000 0.795400
v -1.000000 0.780000 0.820000
v -1.000000 0.780000 -0.820000
v -0.970000 0.100000 -0.795400
vt 0.312500 0.5
vt 0.312500 0.5
vt 0.312500 0.5
vt 0.312500 0.5
vn -0.999028 -0.044075 0.000000
vn -0.999028 -0.044075 0.000000
vn -0.999028 -0.044075 0.000000
vn -0.999028 -0.044075 0.000000
f 105/105/105 106/106/106 107/107/107
f 105/105/105 107/107/107 108/108/108
v -0.970000 0.100000 -0.795400
v -1.000000 0.780000 -0.820000
v -0.820000 0.780000 -1.000000
v -0.795400 0.100000 -0.970000
vt 0.437500 0.5
vt 0.437500 0.5
vt 0.437500 0.5
vt 0.437500 0.5
vn -0.705970 -0.056685 -0.705970
vn -0.705970 -0.056685 -0.705970
vn -0.705970 -0.056685 -0.705970
vn -0.705970 -0.056685 -0.705970
f 109/109/109 110/110/110 111/111/111
f 109/109/109 111/111/111 112/112/112
v -0.820000 0.780000 -1.000000
v -0.721600 1.000000 -0.880000
v 0.721600 1.000000 -0.880000
v 0.820000 0.780000 -1.000000
vt 0.562500 0.5
vt 0.562500 0.5
vt 0.562500 0.5
vt 0.562500 0.5
vn 0.000000 0.478852 -0.877896
vn 0.000000 0.478852 -0.877896
vn 0.000000 0.478852 -0.877896
vn 0.000000 0.478852 -0.877896
f 113/113/113 114/114/114 115/115/115
f 113/113/113 115/115/115 116/116/116
v 0.820000 0.780000 -1.000000
v 0.721600 1.000000 -0.880000
v 0.880000 1.000000 -0.721600
v 1.000000 0.780000 -0.820000
vt 0.062500 0.5
vt 0.062500 0.5
vt 0.062500 0.5
vt 0.062500 0.5
vn 0.578750 0.574541 -0.578750
vn 0.578750 0.574541 -0.578750
vn 0.578750 0.574541 -0.578750
vn 0.578750 0.574541 -0.578750
f 117/117/117 118/118/118 119/119/119
f 117/117/117 119/119/119 120/120/120
v 1.000000 0.780000 -0.820000
v 0.880000 1.000000 -0.721600
v 0.880000 1.000000 0.721600
v 1.000000 0.780000 0.820000
vt 0.187500 0.5
vt 0.187500 0.5
vt 0.187500 0.5
vt 0.187500 0.5
vn 0.877896 0.478852 0.000000
vn 0.877896 0.478852 0.000000
vn 0.877896 0.478852 0.000000
vn 0.877896 0.478852 0.000000
f 121/121/121 122/122/122 123/123/123
f 121/121/121 123/123/123 124/124/124
v 1.000000 0.780000 0.820000
v 0.880000 1.000000 0.721600
v 0.721600 1.000000 0.880000
v 0.820000 0.780000 1.000000
vt 0.312500 0.5
vt 0.312500 0.5
vt 0.312500 0.5
vt 0.312500 0.5
vn 0.578750 0.574541 0.578750
vn 0.578750 0.574541 0.578750
vn 0.578750 0.574541 0.578750
vn 0.578750 0.574541 0.578750
f 125/125/125 126/126/126 127/127/127
f 125/125/125 127/127/127 128/128/128
v 0.820000 0.780000 1.000000
v 0.721600 1.000000 0.880000
v -0.721600 1.000000 0.880000
v -0.820000 0.780000 1.000000
vt 0.437500 0.5
vt 0.437500 0.5
vt 0.437500 0.5
vt 0.437500 0.5
vn 0.000000 0.478852 0.877896
vn 0.000000 0.478852 0.877896
vn 0.000000 0.478852 0.877896
vn 0.000000 0.478852 0.877896
f 129/129/129 130/130/130 131/131/131
f 129/129/129 131/131/131 132/132/132
v -0.820000 0.780000 1.000000
v -0.721600 1.000000 0.880000
v -0.880000 1.000000 0.721600
v -1.000000 0.780000 0.820000
vt 0.562500 0.5
vt 0.562500 0.5
vt 0.562500 0.5
vt 0.562500 0.5
vn -0.578750 0.574541 0.578750
vn -0.578750 0.574541 0.578750
vn -0.578750 0.574541 0.578750
vn -0.578750 0.574541 0.578750
f 133/133/133 134/134/134 135/135/135
f 133/133/133 135/135/135 136/136/136
v -1.000000 0.780000 0.820000
v -0.880000 1.000000 0.721600
v -0.880000 1.000000 -0.721600
v -1.000000 0.780000 -0.820000
vt 0.062500 0.5
vt 0.062500 0.5
vt 0.062500 0.5
vt 0.062500 0.5
vn -0.877896 0.478852 0.000000
vn -0.877896 0.478852 0.000000
vn -0.877896 0.478852 0.000000
vn -0.877896 0.478852 0.000000
f 137/137/137 138/138/138 139/139/139
f 137/137/137 139/139/139 140/140/140
v -1.000000 0.780000 -0.820000
v -0.880000 1.000000 -0.721600
v -0.721600 1.000000 -0.880000
v -0.820000 0.780000 -1.000000
vt 0.187500 0.5
vt 0.187500 0.5
vt 0.187500 0.5
vt 0.187500 0.5
vn -0.578750 0.574541 -0.578750
vn -0.578750 0.574541 -0.578750
vn -0.578750 0.574541 -0.578750
vn -0.578750 0.574541 -0.578750
f 141/141/141 142/142/142 143/143/143
f 141/141/141 143/143/143 144/144/144
v 0.044000 -0.380000 -0.985952
v 0.116000 -0.380000 -0.985952
v -0.084000 -0.800000 -0.999648
v -0.156000 -0.800000 -0.999648
vt 0.937500 0.5
vt 0.937500 0.5
vt 0.937500 0.5
vt 0.937500 0.5
vn 0.000000 0.032591 -0.999469
vn 0.000000 0.032591 -0.999469
vn 0.000000 0.032591 -0.999469
vn 0.000000 0.032591 -0.999469
f 145/145/145 146/146/146 147/147/147
f 145/145/145 147/147/147 148/148/148
v 0.068000 -0.380000 -0.986252
v 0.092000 -0.380000 -0.986252
v -0.108000 -0.800000 -0.999948
v -0.132000 -0.800000 -0.999948
vt 0.812500 0.5
vt 0.812500 0.5
vt 0.812500 0.5
vt 0.812500 0.5
vn 0.000000 0.032591 -0.999469
vn 0.000000 0.032591 -0.999469
vn 0.000000 0.032591 -0.999469
vn 0.000000 0.032591 -0.999469
f 149/149/149 150/150/150 151/151/151
f 149/149/149 151/151/151 152/152/152
v -0.076000 0.100000 -0.970300
v -0.004000 0.100000 -0.970300
v 0.116000 -0.380000 -0.985952
v 0.044000 -0.380000 -0.985952
vt 0.937500 0.5
vt 0.937500 0.5
vt 0.937500 0.5
vt 0.937500 0.5
vn 0.000000 0.032591 -0.999469
vn 0.000000 0.032591 -0.999469
vn 0.000000 0.032591 -0.999469
vn 0.000000 0.032591 -0.999469
f 153/153/153 154/154/154 155/155/155
f 153/153/153 155/155/155 156/156/156
v -0.052000 0.100000 -0.970600
v -0.028000 0.100000 -0.970600
v 0.092000 -0.380000 -0.986252
v 0.068000 -0.380000 -0.986252
vt 0.812500 0.5
vt 0.812500 0.5
vt 0.812500 0.5
vt 0.812500 0.5
vn 0.000000 0.032591 -0.999469
vn 0.000000 0.032591 -0.999469
vn 0.000000 0.032591 -0.999469
vn 0.000000 0.032591 -0.999469
f 157/157/157 158/158/158 159/159/159
f 157/157/157 159/159/159 160/160/160
v 0.124000 0.420000 -0.984418
v 0.196000 0.420000 -0.984418
v -0.004000 0.100000 -0.970300
v -0.076000 0.100000 -0.970300
vt 0.937500 0.5
vt 0.937500 0.5
vt 0.937500 0.5
vt 0.937500 0.5
vn 0.000000 -0.044075 -0.999028
vn 0.000000 -0.044075 -0.999028
vn 0.000000 -0.044075 -0.999028
vn 0.000000 -0.044075 -0.999028
f 161/161/161 162/162/162 163/163/163
f 161/161/161 163/163/163 164/164/164
v 0.148000 0.420000 -0.984718
v 0.172000 0.420000 -0.984718
v -0.028000 0.100000 -0.970600
v -0.052000 0.100000 -0.970600
vt 0.812500 0.5
vt 0.812500 0.5
vt 0.812500 0.5
vt 0.812500 0.5
vn 0.000000 -0.044075 -0.999028
vn 0.000000 -0.044075 -0.999028
vn 0.000000 -0.044075 -0.999028
vn 0.000000 -0.044075 -0.999028
f 165/165/165 166/166/166 167/167/167
f 165/165/165 167/167/167 168/168/168
v -0.006000 0.770000 -0.999859
v 0.066000 0.770000 -0.999859
v 0.196000 0.420000 -0.984418
v 0.124000 0.420000 -0.984418
vt 0.937500 0.5
vt 0.937500 0.5
vt 0.937500 0.5
vt 0.937500 0.5
vn 0.000000 -0.044075 -0.999028
vn 0.000000 -0.044075 -0.999028
vn 0.000000 -0.044075 -0.999028
vn 0.000000 -0.044075 -0.999028
f 169/169/169 170/170/170 171/171/171
f 169/169/169 171/171/171 172/172/172
v 0.018000 0.770000 -1.000000
v 0.042000 0.770000 -1.000000
v 0.172000 0.420000 -0.984718
v 0.148000 0.420000 -0.984718
vt 0.812500 0.5
vt 0.812500 0.5
vt 0.812500 0.5
vt 0.812500 0.5
vn 0.000000 -0.043622 -0.999048
vn 0.000000 -0.043622 -0.999048
vn 0.000000 -0.043622 -0.999048
vn 0.000000 -0.043622 -0.999048
f 173/173/173 174/174/174 175/175/175
f 173/173/173 175/175/175 176/176/176
v 0.985952 -0.380000 0.044000
v 0.985952 -0.380000 0.116000
v 0.999648 -0.800000 -0.084000
v 0.999648 -0.800000 -0.156000
vt 0.937500 0.5
vt 0.937500 0.5
vt 0.937500 0.5
vt 0.937500 0.5
vn 0.999469 0.032591 -0.000000
vn 0.999469 0.032591 -0.000000
vn 0.999469 0.032591 -0.000000
vn 0.999469 0.032591 -0.000000
f 177/177/177 178/178/178 179/179/179
f 177/177/177 179/179/179 180/180/180
v 0.986252 -0.380000 0.068000
v 0.986252 -0.380000 0.092000
v 0.999948 -0.800000 -0.108000
v 0.999948 -0.800000 -0.132000
vt 0.812500 0.5
vt 0.812500 0.5
vt 0.812500 0.5
vt 0.812500 0.5
vn 0.999469 0.032591 -0.000000
vn 0.999469 0.032591 -0.000000
vn 0.999469 0.032591 -0.000000
vn 0.999469 0.032591 -0.000000
f 181/181/181 182/182/182 183/183/183
f 181/181/181 183/183/183 184/184/184
v 0.970300 0.100000 -0.076000
v 0.970300 0.100000 -0.004000
v 0.985952 -0.380000 0.116000
v 0.985952 -0.380000 0.044000
vt 0.937500 0.5
vt 0.937500 0.5
vt 0.937500 0.5
vt 0.937500 0.5
vn 0.999469 0.032591 -0.000000
vn 0.999469 0.032591 -0.000000
vn 0.999469 0.032591 -0.000000
vn 0.999469 0.032591 -0.000000
f 185/185/185 186/186/186 187/187/187
f 185/185/185 187/187/187 188/188/188
v 0.970600 0.100000 -0.052000
v 0.970600 0.100000 -0.028000
v 0.986252 -0.380000 0.092000
v 0.986252 -0.380000 0.068000
vt 0.812500 0.5
vt 0.812500 0.5
vt 0.812500 0.5
vt 0.812500 0.5
vn 0.999469 0.032591 -0.000000
vn 0.999469 0.032591 -0.000000
vn 0.999469 0.032591 -0.000000
vn 0.999469 0.032591 -0.000000
f 189/189/189 190/190/190 191/191/191
f 189/189/189 191/191/191 192/192/192
v 0.984418 0.420000 0.124000
v 0.984418 0.420000 0.196000
v 0.970300 0.100000 -0.004000
v 0.970300 0.100000 -0.076000
vt 0.937500 0.5
vt 0.937500 0.5
vt 0.937500 0.5
vt 0.937500 0.5
vn 0.999028 -0.044075 0.000000
vn 0.999028 -0.044075 0.000000
vn 0.999028 -0.044075 0.000000
vn 0.999028 -0.044075 0.000000
f 193/193/193 194/194/194 195/195/195
f 193/193/193 195/195/195 196/196/196
v 0.984718 0.420000 0.148000
v 0.984718 0.420000 0.172000
v 0.970600 0.100000 -0.028000
v 0.970600 0.100000 -0.052000
vt 0.812500 0.5
vt 0.812500 0.5
vt 0.812500 0.5
vt 0.812500 0.5
vn 0.999028 -0.044075 0.000000
vn 0.999028 -0.044075 0.000000
vn 0.999028 -0.044075 0.000000
vn 0.999028 -0.044075 0.000000
f 197/197/197 198/198/198 199/199/199
f 197/197/197 199/199/199 200/200/200
v 0.999859 0.770000 -0.006000
v 0.999859 0.770000 0.066000
v 0.984418 0.420000 0.196000
v 0.984418 0.420000 0.124000
vt 0.937500 0.5
vt 0.937500 0.5
vt 0.937500 0.5
vt 0.937500 0.5
vn 0.999028 -0.044075 0.000000
vn 0.999028 -0.044075 0.000000
vn 0.999028 -0.044075 0.000000
vn 0.999028 -0.044075 0.000000
f 201/201/201 202/202/202 203/203/203
f 201/201/201 203/203/203 204/204/204
v 1.000000 0.770000 0.018000
v 1.000000 0.770000 0.042000
v 0.984718 0.420000 0.172000
v 0.984718 0.420000 0.148000
vt 0.812500 0.5
vt 0.812500 0.5
vt 0.812500 0.5
vt 0.812500 0.5
vn 0.999048 -0.043622 0.000000
vn 0.999048 -0.043622 0.000000
vn 0.999048 -0.043622 0.000000
vn 0.999048 -0.043622 0.000000
f 205/205/205 206/206/206 207/207/207
f 205/205/205 207/207/207 208/208/208
v -0.044000 -0.380000 0.985952
v -0.116000 -0.380000 0.985952
v 0.084000 -0.800000 0.999648
v 0.156000 -0.800000 0.999648
vt 0.937500 0.5
vt 0.937500 0.5
vt 0.937500 0.5
vt 0.937500 0.5
vn 0.000000 0.032591 0.999469
vn 0.000000 0.032591 0.999469
vn 0.000000 0.032591 0.999469
vn 0.000000 0.032591 0.999469
f 209/209/209 210/210/210 211/211/211
f 209/209/209 211/211/211 212/212/212
v -0.068000 -0.380000 0.986252
v -0.092000 -0.380000 0.986252
v 0.108000 -0.800000 0.999948
v 0.132000 -0.800000 0.999948
vt 0.812500 0.5
vt 0.812500 0.5
vt 0.812500 0.5
vt 0.812500 0.5
vn 0.000000 0.032591 0.999469
vn 0.000000 0.032591 0.999469
vn 0.000000 0.032591 0.999469
vn 0.000000 0.032591 0.999469
f 213/213/213 214/214/214 215/215/215
f 213/213/213 215/215/215 216/216/216
v 0.076000 0.100000 0.970300
v 0.004000 0.100000 0.970300
v -0.116000 -0.380000 0.985952
v -0.044000 -0.380000 0.985952
vt 0.937500 0.5
vt 0.937500 0.5
vt 0.937500 0.5
vt 0.937500 0.5
vn 0.000000 0.032591 0.999469
vn 0.000000 0.032591 0.999469
vn 0.000000 0.032591 0.999469
vn 0.000000 0.032591 0.999469
f 217/217/217 218/218/218 219/219/219
f 217/217/217 219/219/219 220/220/220
v 0.052000 0.100000 0.970600
v 0.028000 0.100000 0.970600
v -0.092000 -0.380000 0.986252
v -0.068000 -0.380000 0.986252
vt 0.812500 0.5
vt 0.812500 0.5
vt 0.812500 0.5
vt 0.812500 0.5
vn 0.000000 0.032591 0.999469
vn 0.000000 0.032591 0.999469
vn 0.000000 0.032591 0.999469
vn 0.000000 0.032591 0.999469
f 221/221/221 222/222/222 223/223/223
f 221/221/221 223/223/223 224/224/224
v -0.124000 0.420000 0.984418
v -0.196000 0.420000 0.984418
v 0.004000 0.100000 0.970300
v 0.076000 0.100000 0.970300
vt 0.937500 0.5
vt 0.937500 0.5
vt 0.937500 0.5
vt 0.937500 0.5
vn 0.000000 -0.044075 0.999028
vn 0.000000 -0.044075 0.999028
vn 0.000000 -0.044075 0.999028
vn 0.000000 -0.044075 0.999028
f 225/225/225 226/226/226 227/227/227
f 225/225/225 227/227/227 228/228/228
v -0.148000 0.420000 0.984718
v -0.172000 0.420000 0.984718
v 0.028000 0.100000 0.970600
v 0.052000 0.100000 0.970600
vt 0.812500 0.5
vt 0.812500 0.5
vt 0.812500 0.5
vt 0.812500 0.5
vn 0.000000 -0.044075 0.999028
vn 0.000000 -0.044075 0.999028
vn 0.000000 -0.044075 0.999028
vn 0.000000 -0.044075 0.999028
f 229/229/229 230/230/230 231/231/231
f 229/229/229 231/231/231 232/232/232
v 0.006000 0.770000 0.999859
v -0.066000 0.770000 0.999859
v -0.196000 0.420000 0.984418
v -0.124000 0.420000 0.984418
vt 0.937500 0.5
vt 0.937500 0.5
vt 0.937500 0.5
vt 0.937500 0.5
vn 0.000000 -0.044075 0.999028
vn 0.000000 -0.044075 0.999028
vn 0.000000 -0.044075 0.999028
vn 0.000000 -0.044075 0.999028
f 233/233/233 234/234/234 235/235/235
f 233/233/233 235/235/235 236/236/236
v -0.018000 0.770000 1.000000
v -0.042000 0.770000 1.000000
v -0.172000 0.420000 0.984718
v -0.148000 0.420000 0.984718
vt 0.812500 0.5
vt 0.812500 0.5
vt 0.812500 0.5
vt 0.812500 0.5
vn 0.000000 -0.043622 0.999048
vn 0.000000 -0.043622 0.999048
vn 0.000000 -0.043622 0.999048
vn 0.000000 -0.043622 0.999048
f 237/237/237 238/238/238 239/239/239
f 237/237/237 239/239/239 240/240/240
v -0.985952 -0.380000 -0.044000
v -0.985952 -0.380000 -0.116000
v -0.999648 -0.800000 0.084000
v -0.999648 -0.800000 0.156000
vt 0.937500 0.5
vt 0.937500 0.5
vt 0.937500 0.5
vt 0.937500 0.5
vn -0.999469 0.032591 0.000000
vn -0.999469 0.032591 0.000000
vn -0.999469 0.032591 0.000000
vn -0.999469 0.032591 0.000000
f 241/241/241 242/242/242 243/243/243
f 241/241/241 243/243/243 244/244/244
v -0.986252 -0.380000 -0.068000
v -0.986252 -0.380000 -0.092000
v -0.999948 -0.800000 0.108000
v -0.999948 -0.800000 0.132000
vt 0.812500 0.5
vt 0.812500 0.5
vt 0.812500 0.5
vt 0.812500 0.5
vn -0.999469 0.032591 0.000000
vn -0.999469 0.032591 0.000000
vn -0.999469 0.032591 0.000000
vn -0.999469 0.032591 0.000000
f 245/245/245 246/246/246 247/247/247
f 245/245/245 247/247/247 248/248/248
v -0.970300 0.100000 0.076000
v -0.970300 0.100000 0.004000
v -0.985952 -0.380000 -0.116000
v -0.985952 -0.380000 -0.044000
vt 0.937500 0.5
vt 0.937500 0.5
vt 0.937500 0.5
vt 0.937500 0.5
vn -0.999469 0.032591 0.000000
vn -0.999469 0.032591 0.000000
vn -0.999469 0.032591 0.000000
vn -0.999469 0.032591 0.000000
f 249/249/249 250/250/250 251/251/251
f 249/249/249 251/251/251 252/252/252
v -0.970600 0.100000 0.052000
v -0.970600 0.100000 0.028000
v -0.986252 -0.380000 -0.092000
v -0.986252 -0.380000 -0.068000
vt 0.812500 0.5
vt 0.812500 0.5
vt 0.812500 0.5
vt 0.812500 0.5
vn -0.999469 0.032591 0.000000
vn -0.999469 0.032591 0.000000
vn -0.999469 0.032591 0.000000
vn -0.999469 0.032591 0.000000
f 253/253/253 254/254/254 255/255/255
f 253/253/253 255/255/255 256/256/256
v -0.984418 0.420000 -0.124000
v -0.984418 0.420000 -0.196000
v -0.970300 0.100000 0.004000
v -0.970300 0.100000 0.076000
vt 0.937500 0.5
vt 0.937500 0.5
vt 0.937500 0.5
vt 0.937500 0.5
vn -0.999028 -0.044075 -0.000000
vn -0.999028 -0.044075 -0.000000
vn -0.999028 -0.044075 -0.000000
vn -0.999028 -0.044075 -0.000000
f 257/257/257 258/258/258 259/259/259
f 257/257/257 259/259/259 260/260/260
v -0.984718 0.420000 -0.148000
v -0.984718 0.420000 -0.172000
v -0.970600 0.100000 0.028000
v -0.970600 0.100000 0.052000
vt 0.812500 0.5
vt 0.812500 0.5
vt 0.812500 0.5
vt 0.812500 0.5
vn -0.999028 -0.044075 -0.000000
vn -0.999028 -0.044075 -0.000000
vn -0.999028 -0.044075 -0.000000
vn -0.999028 -0.044075 -0.000000
f 261/261/261 262/262/262 263/263/263
f 261/261/261 263/263/263 264/264/264
v -0.999859 0.770000 0.006000
v -0.999859 0.770000 -0.066000
v -0.984418 0.420000 -0.196000
v -0.984418 0.420000 -0.124000
vt 0.937500 0.5
vt 0.937500 0.5
vt 0.937500 0.5
vt 0.937500 0.5
vn -0.999028 -0.044075 -0.000000
vn -0.999028 -0.044075 -0.000000
vn -0.999028 -0.044075 -0.000000
vn -0.999028 -0.044075 -0.000000
f 265/265/265 266/266/266 267/267/267
f 265/265/265 267/267/267 268/268/268
v -1.000000 0.770000 -0.018000
v -1.000000 0.770000 -0.042000
v -0.984718 0.420000 -0.172000
v -0.984718 0.420000 -0.148000
vt 0.812500 0.5
vt 0.812500 0.5
vt 0.812500 0.5
vt 0.812500 0.5
vn -0.999048 -0.043622 -0.000000
vn -0.999048 -0.043622 -0.000000
vn -0.999048 -0.043622 -0.000000
vn -0.999048 -0.043622 -0.000000
f 269/269/269 270/270/270 271/271/271
f 269/269/269 271/271/271 272/272/272
