# Original title scenery; closed shared-vertex topology.
mtllib title_sandstone.mtl
o TitleCliff
usemtl title_sandstone
v 1.0742064 0.0000000 0.0000000
v 1.0757944 0.0000000 0.1703891
v 1.0205346 0.0000000 0.3315918
v 0.9275183 0.0000000 0.4725942
v 0.8184609 0.0000000 0.5946467
v 0.7045434 0.0000000 0.7045434
v 0.5840057 0.0000000 0.8038149
v 0.4504342 0.0000000 0.8840269
v 0.3030739 0.0000000 0.9327654
v 0.1497094 0.0000000 0.9452277
v 0.0000000 0.0000000 0.9309204
v -0.1439024 0.0000000 0.9085639
v -0.2898655 0.0000000 0.8921143
v -0.4477348 0.0000000 0.8787290
v -0.6166594 0.0000000 0.8487589
v -0.7787498 0.0000000 0.7787498
v -0.9058756 0.0000000 0.6581572
v -0.9760798 0.0000000 0.4973375
v -0.9878809 0.0000000 0.3209820
v -0.9615330 0.0000000 0.1522919
v -0.9257936 0.0000000 0.0000000
v -0.8995822 0.0000000 -0.1424798
v -0.8815784 0.0000000 -0.2864422
v -0.8544947 0.0000000 -0.4353868
v -0.7995731 0.0000000 -0.5809239
v -0.7096702 0.0000000 -0.7096702
v -0.5915648 0.0000000 -0.8142191
v -0.4575468 0.0000000 -0.8979862
v -0.3149601 0.0000000 -0.9693476
v -0.1631596 0.0000000 -1.0301490
v -0.0000000 0.0000000 -1.0690796
v 0.1689665 0.0000000 -1.0668128
v 0.3281685 0.0000000 -1.0099987
v 0.4602462 0.0000000 -0.9032841
v 0.5589111 0.0000000 -0.7692751
v 0.6354638 0.0000000 -0.6354638
v 0.7121584 0.0000000 -0.5174133
v 0.8059332 0.0000000 -0.4106435
v 0.9142321 0.0000000 -0.2970520
v 1.0138437 0.0000000 -0.1605771
v 1.0706643 0.0820000 0.0000000
v 1.0722365 0.0830181 0.1686852
v 1.0175293 0.0835267 0.3282759
v 0.9254432 0.0835489 0.4678683
v 0.8174763 0.0831862 0.5887002
v 0.7046979 0.0825858 0.6974979
v 0.5853656 0.0819021 0.7957767
v 0.4531299 0.0812607 0.8751866
v 0.3072431 0.0807331 0.9234378
v 0.1554123 0.0803281 0.9357754
v 0.0072000 0.0800000 0.9216112
v -0.1352634 0.0796719 0.8994783
v -0.2797669 0.0792669 0.8831932
v -0.4360574 0.0787393 0.8699417
v -0.6032928 0.0780979 0.8402713
v -0.7637623 0.0774142 0.7709623
v -0.8896169 0.0768138 0.6515756
v -0.9591190 0.0764511 0.4923641
v -0.9708021 0.0764733 0.3177721
v -0.9447176 0.0769819 0.1507689
v -0.9093357 0.0780000 0.0000000
v -0.8833864 0.0794541 -0.1410550
v -0.8655626 0.0811756 -0.2835778
v -0.8387498 0.0829232 -0.4310329
v -0.7843774 0.0844223 -0.5751146
v -0.6953735 0.0854142 -0.7025735
v -0.5784492 0.0857063 -0.8060769
v -0.4457713 0.0852114 -0.8890063
v -0.3046105 0.0839692 -0.9596541
v -0.1543280 0.0821440 -1.0198475
v 0.0072000 0.0800000 -1.0583888
v 0.1744769 0.0778560 -1.0561447
v 0.3320868 0.0760308 -0.9998987
v 0.4628438 0.0747886 -0.8942512
v 0.5605220 0.0742937 -0.7615824
v 0.6363092 0.0745858 -0.6291092
v 0.7122368 0.0755777 -0.5122392
v 0.8050739 0.0770768 -0.4065370
v 0.9122898 0.0788244 -0.2940815
v 1.0109053 0.0805459 -0.1589713
v 0.9795016 0.3895000 0.0000000
v 0.9808991 0.3943359 0.1499424
v 0.9322705 0.3967519 0.2918008
v 0.8504161 0.3968575 0.4158829
v 0.7544456 0.3951344 0.5232891
v 0.6541982 0.3922825 0.6199982
v 0.5481250 0.3890350 0.7073571
v 0.4305821 0.3859883 0.7779437
v 0.3009050 0.3834823 0.8208336
v 0.1659442 0.3815584 0.8318003
v 0.0342000 0.3800000 0.8192100
v -0.0924341 0.3784416 0.7995362
v -0.2208817 0.3765177 0.7850606
v -0.3598066 0.3740117 0.7732815
v -0.5084603 0.3709650 0.7469078
v -0.6510998 0.3677175 0.6852998
v -0.7629705 0.3648656 0.5791783
v -0.8247503 0.3631425 0.4376570
v -0.8351352 0.3632481 0.2824641
v -0.8119490 0.3656641 0.1340168
v -0.7804984 0.3705000 0.0000000
v -0.7574324 0.3774068 -0.1253823
v -0.7415890 0.3855840 -0.2520691
v -0.7177553 0.3938852 -0.3831404
v -0.6694243 0.4010057 -0.5112130
v -0.5903098 0.4057175 -0.6245098
v -0.4863770 0.4071051 -0.7165128
v -0.3684412 0.4047544 -0.7902278
v -0.2429649 0.3988536 -0.8530259
v -0.1093804 0.3901842 -0.9065311
v 0.0342000 0.3800000 -0.9407900
v 0.1828906 0.3698158 -0.9387953
v 0.3229883 0.3611464 -0.8887989
v 0.4392167 0.3552456 -0.7948900
v 0.5260418 0.3528949 -0.6769621
v 0.5934081 0.3542825 -0.5592081
v 0.6608994 0.3589943 -0.4553237
v 0.7434212 0.3661148 -0.3613663
v 0.8387243 0.3744160 -0.2614058
v 0.9263825 0.3825932 -0.1413078
v 0.9527913 0.6970000 0.0000000
v 0.9541094 0.7056537 0.1414230
v 0.9082438 0.7099770 0.2752212
v 0.8310402 0.7101660 0.3922532
v 0.7405225 0.7070826 0.4935567
v 0.6459710 0.7019792 0.5847710
v 0.5459247 0.6961680 0.6671664
v 0.4350604 0.6907159 0.7337423
v 0.3127513 0.6862314 0.7741953
v 0.1854588 0.6827887 0.7845390
v 0.0612000 0.6800000 0.7726640
v -0.0582390 0.6772113 0.7541080
v -0.1793884 0.6737686 0.7404549
v -0.3104199 0.6692841 0.7293450
v -0.4506273 0.6638320 0.7044699
v -0.5851623 0.6580208 0.6463623
v -0.6906768 0.6529174 0.5462704
v -0.7489463 0.6498340 0.4127901
v -0.7587412 0.6500230 0.2664150
v -0.7368724 0.6543463 0.1264022
v -0.7072087 0.6630000 0.0000000
v -0.6854533 0.6753595 -0.1182583
v -0.6705101 0.6899923 -0.2377470
v -0.6480306 0.7048472 -0.3613710
v -0.6024457 0.7175892 -0.4821668
v -0.5278263 0.7260208 -0.5890263
v -0.4297988 0.7285039 -0.6758018
v -0.3185638 0.7242973 -0.7453285
v -0.2002169 0.7137380 -0.8045585
v -0.0742224 0.6982244 -0.8550237
v 0.0612000 0.6800000 -0.8873360
v 0.2014422 0.6617756 -0.8854546
v 0.3335798 0.6462620 -0.8382989
v 0.4432044 0.6357027 -0.7497258
v 0.5250962 0.6314961 -0.6384983
v 0.5886350 0.6339792 -0.5274350
v 0.6522914 0.6424108 -0.4294531
v 0.7301246 0.6551528 -0.3408341
v 0.8200127 0.6700077 -0.2465532
v 0.9026903 0.6846405 -0.1332790
v 0.8669707 0.9430000 0.0000000
v 0.8681299 0.9547079 0.1243840
v 0.8277903 0.9605572 0.2420620
v 0.7598884 0.9608128 0.3449938
v 0.6802765 0.9566412 0.4340921
v 0.5971167 0.9497365 0.5143167
v 0.5091242 0.9418743 0.5867849
v 0.4116170 0.9344979 0.6453396
v 0.3040439 0.9284307 0.6809187
v 0.1920878 0.9237730 0.6900162
v 0.0828000 0.9200000 0.6795719
v -0.0222487 0.9162270 0.6632516
v -0.1288018 0.9115693 0.6512434
v -0.2440464 0.9055021 0.6414721
v -0.3673614 0.8981257 0.6195940
v -0.4856873 0.8902635 0.5684873
v -0.5784892 0.8833588 0.4804547
v -0.6297383 0.8791872 0.3630564
v -0.6383531 0.8794428 0.2343168
v -0.6191191 0.8852921 0.1111731
v -0.5930293 0.8970000 0.0000000
v -0.5738950 0.9137216 -0.1040103
v -0.5607522 0.9335191 -0.2091028
v -0.5409811 0.9536168 -0.3178324
v -0.5008884 0.9708560 -0.4240744
v -0.4352592 0.9822635 -0.5180592
v -0.3490423 0.9856229 -0.5943799
v -0.2512092 0.9799316 -0.6555299
v -0.1471209 0.9656455 -0.7076238
v -0.0363065 0.9446566 -0.7520088
v 0.0828000 0.9200000 -0.7804281
v 0.2061456 0.8953434 -0.7787733
v 0.3223630 0.8743545 -0.7372991
v 0.4187797 0.8600684 -0.6593974
v 0.4908051 0.8543771 -0.5615708
v 0.5466886 0.8577365 -0.4638886
v 0.6026756 0.8691440 -0.3777117
v 0.6711312 0.8863832 -0.2997697
v 0.7501894 0.9064809 -0.2168480
v 0.8229059 0.9262784 -0.1172213
v 0.7989762 1.0250000 0.0000000
v 0.8000243 1.0377260 0.1124568
v 0.7635529 1.0440839 0.2188506
v 0.7021621 1.0443617 0.3119122
v 0.6301842 1.0398274 0.3924668
v 0.5549986 1.0323223 0.4649986
v 0.4754438 1.0237764 0.5305178
v 0.3872866 1.0157586 0.5834578
v 0.2900287 1.0091638 0.6156252
v 0.1888082 1.0041011 0.6238503
v 0.0900000 1.0000000 0.6144075
v -0.0049756 0.9958989 0.5996522
v -0.1013112 0.9908362 0.5887954
v -0.2055049 0.9842414 0.5799611
v -0.3169952 0.9762236 0.5601809
v -0.4239748 0.9676777 0.5139748
v -0.5078779 0.9601726 0.4343837
v -0.5542127 0.9556383 0.3282428
v -0.5620014 0.9559161 0.2118481
v -0.5446118 0.9622740 0.1005126
v -0.5210238 0.9750000 0.0000000
v -0.5037243 0.9931757 -0.0940367
v -0.4918417 1.0146946 -0.1890518
v -0.4739665 1.0365400 -0.2873553
v -0.4377182 1.0552783 -0.3834097
v -0.3783823 1.0676777 -0.4683823
v -0.3004328 1.0713292 -0.5373846
v -0.2119809 1.0651431 -0.5926709
v -0.1178737 1.0496147 -0.6397694
v -0.0176853 1.0268006 -0.6798984
v 0.0900000 1.0000000 -0.7055925
v 0.2015179 0.9731994 -0.7040964
v 0.3065912 0.9503853 -0.6665992
v 0.3937625 0.9348569 -0.5961675
v 0.4588813 0.9286708 -0.5077216
v 0.5094061 0.9323223 -0.4194061
v 0.5600245 0.9447217 -0.3414928
v 0.6219159 0.9634600 -0.2710247
v 0.6933932 0.9853054 -0.1960543
v 0.7591369 1.0068243 -0.1059809
v 0.0000000 0.0000000 0.0000000
v 0.0900000 1.0000000 0.0000000
vt 0.5 0.5
vt 0.5 0.5
vt 0.5 0.5
vt 0.5 0.5
vt 0.5 0.5
vt 0.5 0.5
vt 0.5 0.5
vt 0.5 0.5
vt 0.5 0.5
vt 0.5 0.5
vt 0.5 0.5
vt 0.5 0.5
vt 0.5 0.5
vt 0.5 0.5
vt 0.5 0.5
vt 0.5 0.5
vt 0.5 0.5
vt 0.5 0.5
vt 0.5 0.5
vt 0.5 0.5
vt 0.5 0.5
vt 0.5 0.5
vt 0.5 0.5
vt 0.5 0.5
vt 0.5 0.5
vt 0.5 0.5
vt 0.5 0.5
vt 0.5 0.5
vt 0.5 0.5
vt 0.5 0.5
vt 0.5 0.5
vt 0.5 0.5
vt 0.5 0.5
vt 0.5 0.5
vt 0.5 0.5
vt 0.5 0.5
vt 0.5 0.5
vt 0.5 0.5
vt 0.5 0.5
vt 0.5 0.5
vt 0.5 0.5
vt 0.5 0.5
vt 0.5 0.5
vt 0.5 0.5
vt 0.5 0.5
vt 0.5 0.5
vt 0.5 0.5
vt 0.5 0.5
vt 0.5 0.5
vt 0.5 0.5
vt 0.5 0.5
vt 0.5 0.5
vt 0.5 0.5
vt 0.5 0.5
vt 0.5 0.5
vt 0.5 0.5
vt 0.5 0.5
vt 0.5 0.5
vt 0.5 0.5
vt 0.5 0.5
vt 0.5 0.5
vt 0.5 0.5
vt 0.5 0.5
vt 0.5 0.5
vt 0.5 0.5
vt 0.5 0.5
vt 0.5 0.5
vt 0.5 0.5
vt 0.5 0.5
vt 0.5 0.5
vt 0.5 0.5
vt 0.5 0.5
vt 0.5 0.5
vt 0.5 0.5
vt 0.5 0.5
vt 0.5 0.5
vt 0.5 0.5
vt 0.5 0.5
vt 0.5 0.5
vt 0.5 0.5
vt 0.5 0.5
vt 0.5 0.5
vt 0.5 0.5
vt 0.5 0.5
vt 0.5 0.5
vt 0.5 0.5
vt 0.5 0.5
vt 0.5 0.5
vt 0.5 0.5
vt 0.5 0.5
vt 0.5 0.5
vt 0.5 0.5
vt 0.5 0.5
vt 0.5 0.5
vt 0.5 0.5
vt 0.5 0.5
vt 0.5 0.5
vt 0.5 0.5
vt 0.5 0.5
vt 0.5 0.5
vt 0.5 0.5
vt 0.5 0.5
vt 0.5 0.5
vt 0.5 0.5
vt 0.5 0.5
vt 0.5 0.5
vt 0.5 0.5
vt 0.5 0.5
vt 0.5 0.5
vt 0.5 0.5
vt 0.5 0.5
vt 0.5 0.5
vt 0.5 0.5
vt 0.5 0.5
vt 0.5 0.5
vt 0.5 0.5
vt 0.5 0.5
vt 0.5 0.5
vt 0.5 0.5
vt 0.5 0.5
vt 0.5 0.5
vt 0.5 0.5
vt 0.5 0.5
vt 0.5 0.5
vt 0.5 0.5
vt 0.5 0.5
vt 0.5 0.5
vt 0.5 0.5
vt 0.5 0.5
vt 0.5 0.5
vt 0.5 0.5
vt 0.5 0.5
vt 0.5 0.5
vt 0.5 0.5
vt 0.5 0.5
vt 0.5 0.5
vt 0.5 0.5
vt 0.5 0.5
vt 0.5 0.5
vt 0.5 0.5
vt 0.5 0.5
vt 0.5 0.5
vt 0.5 0.5
vt 0.5 0.5
vt 0.5 0.5
vt 0.5 0.5
vt 0.5 0.5
vt 0.5 0.5
vt 0.5 0.5
vt 0.5 0.5
vt 0.5 0.5
vt 0.5 0.5
vt 0.5 0.5
vt 0.5 0.5
vt 0.5 0.5
vt 0.5 0.5
vt 0.5 0.5
vt 0.5 0.5
vt 0.5 0.5
vt 0.5 0.5
vt 0.5 0.5
vt 0.5 0.5
vt 0.5 0.5
vt 0.5 0.5
vt 0.5 0.5
vt 0.5 0.5
vt 0.5 0.5
vt 0.5 0.5
vt 0.5 0.5
vt 0.5 0.5
vt 0.5 0.5
vt 0.5 0.5
vt 0.5 0.5
vt 0.5 0.5
vt 0.5 0.5
vt 0.5 0.5
vt 0.5 0.5
vt 0.5 0.5
vt 0.5 0.5
vt 0.5 0.5
vt 0.5 0.5
vt 0.5 0.5
vt 0.5 0.5
vt 0.5 0.5
vt 0.5 0.5
vt 0.5 0.5
vt 0.5 0.5
vt 0.5 0.5
vt 0.5 0.5
vt 0.5 0.5
vt 0.5 0.5
vt 0.5 0.5
vt 0.5 0.5
vt 0.5 0.5
vt 0.5 0.5
vt 0.5 0.5
vt 0.5 0.5
vt 0.5 0.5
vt 0.5 0.5
vt 0.5 0.5
vt 0.5 0.5
vt 0.5 0.5
vt 0.5 0.5
vt 0.5 0.5
vt 0.5 0.5
vt 0.5 0.5
vt 0.5 0.5
vt 0.5 0.5
vt 0.5 0.5
vt 0.5 0.5
vt 0.5 0.5
vt 0.5 0.5
vt 0.5 0.5
vt 0.5 0.5
vt 0.5 0.5
vt 0.5 0.5
vt 0.5 0.5
vt 0.5 0.5
vt 0.5 0.5
vt 0.5 0.5
vt 0.5 0.5
vt 0.5 0.5
vt 0.5 0.5
vt 0.5 0.5
vt 0.5 0.5
vt 0.5 0.5
vt 0.5 0.5
vt 0.5 0.5
vt 0.5 0.5
vt 0.5 0.5
vt 0.5 0.5
vt 0.5 0.5
vt 0.5 0.5
vt 0.5 0.5
vt 0.5 0.5
vt 0.5 0.5
vt 0.5 0.5
vt 0.5 0.5
vt 0.5 0.5
vt 0.5 0.5
vt 0.5 0.5
vt 0.5 0.5
vn 0.1155174 -0.9931976 -0.0146390
vn 0.1115369 -0.9934550 0.0246324
vn 0.1031078 -0.9930871 0.0560970
vn 0.0942733 -0.9926310 0.0761336
vn 0.0876629 -0.9923979 0.0863804
vn 0.0810179 -0.9923425 0.0932330
vn 0.0685113 -0.9923985 0.1022322
vn 0.0470431 -0.9924475 0.1132913
vn 0.0199304 -0.9922536 0.1226197
vn -0.0045200 -0.9918420 0.1273934
vn -0.0173326 -0.9915601 0.1284839
vn -0.0164398 -0.9914465 0.1294742
vn -0.0122956 -0.9912960 0.1310766
vn -0.0188747 -0.9916446 0.1276113
vn -0.0389222 -0.9928315 0.1130070
vn -0.0650337 -0.9940751 0.0870939
vn -0.0894037 -0.9945225 0.0541477
vn -0.1078126 -0.9939753 0.0197369
vn -0.1189386 -0.9928568 -0.0094319
vn -0.1241462 -0.9919334 -0.0256077
vn -0.1276157 -0.9914923 -0.0256353
vn -0.1324214 -0.9910109 -0.0190238
vn -0.1351866 -0.9905763 -0.0219827
vn -0.1295517 -0.9907556 -0.0402465
vn -0.1140346 -0.9912580 -0.0663603
vn -0.0933054 -0.9915601 -0.0900144
vn -0.0742227 -0.9916656 -0.1053107
vn -0.0606552 -0.9918210 -0.1123037
vn -0.0495737 -0.9921600 -0.1147210
vn -0.0333881 -0.9927866 -0.1151525
vn -0.0077773 -0.9936098 -0.1126017
vn 0.0248720 -0.9941640 -0.1049732
vn 0.0586800 -0.9940205 -0.0920869
vn 0.0872415 -0.9932258 -0.0767555
vn 0.1043441 -0.9923870 -0.0654249
vn 0.1068853 -0.9920479 -0.0664562
vn 0.1009102 -0.9916362 -0.0804656
vn 0.0988617 -0.9908464 -0.0919226
vn 0.1049963 -0.9909585 -0.0835290
vn 0.1127794 -0.9921361 -0.0542834
vn 0.9605582 0.2321247 -0.1531208
vn 0.9544071 0.2371612 0.1812777
vn 0.8634502 0.2347183 0.4464988
vn 0.7634058 0.2323817 0.6026693
vn 0.6954894 0.2336532 0.6794856
vn 0.6401027 0.2381943 0.7304328
vn 0.5473100 0.2474684 0.7995068
vn 0.3845095 0.2616634 0.8852597
vn 0.1712610 0.2753387 0.9459695
vn -0.0213848 0.2839578 0.9585983
vn -0.1247095 0.2885808 0.9492990
vn -0.1254095 0.2893691 0.9489668
vn -0.0935074 0.2878778 0.9530911
vn -0.1350203 0.2984955 0.9448121
vn -0.2927123 0.3320197 0.8967064
vn -0.5344162 0.3774777 0.7562473
vn -0.7664810 0.4063288 0.4973970
vn -0.8958076 0.4016822 0.1902110
vn -0.9237998 0.3789916 -0.0543990
vn -0.9151077 0.3615024 -0.1785884
vn -0.9167779 0.3558520 -0.1813497
vn -0.9270310 0.3519385 -0.1294329
vn -0.9276953 0.3466968 -0.1385021
vn -0.9020498 0.3454871 -0.2587371
vn -0.8231957 0.3440431 -0.4516449
vn -0.6914340 0.3363215 -0.6393801
vn -0.5537895 0.3261405 -0.7661263
vn -0.4524966 0.3209737 -0.8319992
vn -0.3750674 0.3217997 -0.8693500
vn -0.2662485 0.3251192 -0.9074190
vn -0.0759331 0.3256240 -0.9424453
vn 0.2007244 0.3132767 -0.9282066
vn 0.4970352 0.2807493 -0.8210578
vn 0.7164350 0.2393596 -0.6553074
vn 0.8228153 0.2112538 -0.5275858
vn 0.8318868 0.2064319 -0.5151216
vn 0.7682932 0.2117037 -0.6040754
vn 0.7145310 0.2102278 -0.6672704
vn 0.7556081 0.2103860 -0.6203178
vn 0.8676017 0.2197633 -0.4460620
vn 0.9636530 0.1868963 -0.1908998
vn 0.9697268 0.1938161 0.1485436
vn 0.8827890 0.1942092 0.4277456
vn 0.7787877 0.1933522 0.5967450
vn 0.7060555 0.1945701 0.6809025
vn 0.6506518 0.1982759 0.7330340
vn 0.5631243 0.2066091 0.8001273
vn 0.4065862 0.2208419 0.8865193
vn 0.1941904 0.2362497 0.9520904
vn -0.0059768 0.2470514 0.9689839
vn -0.1216539 0.2525306 0.9599107
vn -0.1320736 0.2528226 0.9584557
vn -0.0987781 0.2496903 0.9632744
vn -0.1300989 0.2568141 0.9576642
vn -0.2786015 0.2863594 0.9167221
vn -0.5195864 0.3308700 0.7877531
vn -0.7617771 0.3641495 0.5358086
vn -0.9033238 0.3661944 0.2234006
vn -0.9369606 0.3478296 -0.0334575
vn -0.9280932 0.3310624 -0.1704130
vn -0.9283301 0.3241934 -0.1819392
vn -0.9389883 0.3192804 -0.1279104
vn -0.9413691 0.3129531 -0.1260339
vn -0.9203147 0.3107370 -0.2376201
vn -0.8476916 0.3092446 -0.4310298
vn -0.7172472 0.3018286 -0.6280572
vn -0.5732586 0.2908923 -0.7660002
vn -0.4633188 0.2838052 -0.8395179
vn -0.3819661 0.2824285 -0.8799637
vn -0.2761780 0.2836385 -0.9183000
vn -0.0926994 0.2826328 -0.9547385
vn 0.1791807 0.2709043 -0.9457828
vn 0.4783969 0.2416357 -0.8442444
vn 0.7069638 0.2036050 -0.6773088
vn 0.8229783 0.1760533 -0.5401036
vn 0.8406083 0.1689707 -0.5146130
vn 0.7816403 0.1727310 -0.5993350
vn 0.7206548 0.1710835 -0.6718535
vn 0.7516101 0.1693557 -0.6374958
vn 0.8616986 0.1757682 -0.4760053
vn 0.9595318 0.1927189 -0.2053243
vn 0.9705493 0.1979688 0.1372675
vn 0.8848580 0.1968217 0.4222412
vn 0.7789151 0.1953651 0.5959226
vn 0.7036959 0.1970787 0.6826215
vn 0.6471429 0.2017393 0.7351920
vn 0.5601766 0.2105372 0.8011718
vn 0.4051696 0.2243543 0.8862859
vn 0.1940242 0.2388697 0.9514704
vn -0.0063919 0.2491001 0.9684567
vn -0.1239184 0.2550282 0.9589603
vn -0.1366116 0.2570525 0.9566929
vn -0.1039652 0.2561632 0.9610263
vn -0.1339381 0.2646858 0.9549880
vn -0.2804118 0.2942552 0.9136646
vn -0.5192041 0.3372640 0.7852899
vn -0.7598044 0.3679681 0.5360007
vn -0.9016568 0.3677881 0.2274794
vn -0.9369401 0.3485230 -0.0259784
vn -0.9295967 0.3321827 -0.1597019
vn -0.9303236 0.3265349 -0.1669521
vn -0.9402843 0.3226909 -0.1083328
vn -0.9427396 0.3169229 -0.1039325
vn -0.9241299 0.3151238 -0.2160576
vn -0.8543670 0.3139250 -0.4141355
vn -0.7230321 0.3063136 -0.6191902
vn -0.5731460 0.2948100 -0.7645854
vn -0.4552489 0.2875794 -0.8426426
vn -0.3672910 0.2868098 -0.8847811
vn -0.2581001 0.2886511 -0.9219896
vn -0.0749777 0.2872939 -0.9549034
vn 0.1922959 0.2740124 -0.9423054
vn 0.4843995 0.2428822 -0.8404554
vn 0.7077738 0.2037227 -0.6764269
vn 0.8215760 0.1762294 -0.5421772
vn 0.8376383 0.1706682 -0.5188780
vn 0.7756826 0.1770070 -0.6057929
vn 0.7113671 0.1773624 -0.6800731
vn 0.7411420 0.1764251 -0.6477520
vn 0.8528913 0.1826519 -0.4890958
vn 0.8794758 0.4097027 -0.2422106
vn 0.9026881 0.4216216 0.0859617
vn 0.8304167 0.4158861 0.3707382
vn 0.7289107 0.4065211 0.5508447
vn 0.6515990 0.4040817 0.6419788
vn 0.5944919 0.4081573 0.6928109
vn 0.5141261 0.4166963 0.7496923
vn 0.3738192 0.4284276 0.8226233
vn 0.1815558 0.4378967 0.8805021
vn -0.0051160 0.4415007 0.8972463
vn -0.1202346 0.4433920 0.8882270
vn -0.1391000 0.4461701 0.8840721
vn -0.1103117 0.4474963 0.8874561
vn -0.1326071 0.4578250 0.8790970
vn -0.2583888 0.4910889 0.8319056
vn -0.4628913 0.5370695 0.7051865
vn -0.6687092 0.5658998 0.4822711
vn -0.7996795 0.5600781 0.2163911
vn -0.8454728 0.5339989 -0.0045786
vn -0.8498967 0.5126455 -0.1219433
vn -0.8549134 0.5043650 -0.1214043
vn -0.8663875 0.4961123 -0.0569673
vn -0.8733271 0.4851273 -0.0441723
vn -0.8630744 0.4837831 -0.1451086
vn -0.8053983 0.4889077 -0.3351162
vn -0.6841746 0.4877200 -0.5422494
vn -0.5336517 0.4787779 -0.6971281
vn -0.4048736 0.4724575 -0.7828545
vn -0.3054077 0.4746083 -0.8255139
vn -0.1943028 0.4825462 -0.8540466
vn -0.0255795 0.4897217 -0.8715035
vn 0.2086658 0.4850222 -0.8492420
vn 0.4616724 0.4586557 -0.7592717
vn 0.6613918 0.4178510 -0.6228655
vn 0.7678666 0.3860138 -0.5112476
vn 0.7798881 0.3794054 -0.4978214
vn 0.7123465 0.3833840 -0.5878598
vn 0.6429973 0.3745841 -0.6680129
vn 0.6667539 0.3703310 -0.6467567
vn 0.7722307 0.3856202 -0.5049326
vn 0.1194747 0.9781054 -0.1703984
vn 0.1214946 0.9896488 -0.0763831
vn 0.1070611 0.9941958 0.0106147
vn 0.0812166 0.9934792 0.0800184
vn 0.0533077 0.9907712 0.1246220
vn 0.0319145 0.9887807 0.1459254
vn 0.0175601 0.9878603 0.1543490
vn 0.0033566 0.9870723 0.1602407
vn -0.0164918 0.9858661 0.1667213
vn -0.0405421 0.9843891 0.1712731
vn -0.0608012 0.9833288 0.1713698
vn -0.0702970 0.9832603 0.1681000
vn -0.0734013 0.9837966 0.1635739
vn -0.0838203 0.9843501 0.1550128
vn -0.1084560 0.9846930 0.1364444
vn -0.1414726 0.9842335 0.1061594
vn -0.1725726 0.9825592 0.0692537
vn -0.1937414 0.9803684 0.0366340
vn -0.2015020 0.9791804 0.0245503
vn -0.1991424 0.9787238 0.0494172
vn -0.1969058 0.9743459 0.1089870
vn -0.2025295 0.9649275 0.1670231
vn -0.2097251 0.9604806 0.1830094
vn -0.2039511 0.9674493 0.1498194
vn -0.1750792 0.9809113 0.0846185
vn -0.1201906 0.9927242 0.0072691
vn -0.0428427 0.9969211 -0.0656726
vn 0.0441521 0.9917962 -0.1199621
vn 0.1212121 0.9814860 -0.1482996
vn 0.1757846 0.9721196 -0.1551878
vn 0.2106636 0.9658534 -0.1508248
vn 0.2355667 0.9614229 -0.1420362
vn 0.2542695 0.9580900 -0.1319493
vn 0.2590863 0.9574987 -0.1267695
vn 0.2346419 0.9616700 -0.1418946
vn 0.1742469 0.9653111 -0.1944544
vn 0.1045123 0.9567019 -0.2716590
vn 0.0697072 0.9437089 -0.3233488
vn 0.0771986 0.9454850 -0.3163836
vn 0.1014995 0.9609471 -0.2574460
vn 0.0000000 -1.0000000 0.0000000
vn 0.0051522 0.9999844 -0.0021783
f 1/1/1 41/41/41 42/42/42
f 1/1/1 42/42/42 2/2/2
f 2/2/2 42/42/42 43/43/43
f 2/2/2 43/43/43 3/3/3
f 3/3/3 43/43/43 44/44/44
f 3/3/3 44/44/44 4/4/4
f 4/4/4 44/44/44 45/45/45
f 4/4/4 45/45/45 5/5/5
f 5/5/5 45/45/45 46/46/46
f 5/5/5 46/46/46 6/6/6
f 6/6/6 46/46/46 47/47/47
f 6/6/6 47/47/47 7/7/7
f 7/7/7 47/47/47 48/48/48
f 7/7/7 48/48/48 8/8/8
f 8/8/8 48/48/48 49/49/49
f 8/8/8 49/49/49 9/9/9
f 9/9/9 49/49/49 50/50/50
f 9/9/9 50/50/50 10/10/10
f 10/10/10 50/50/50 51/51/51
f 10/10/10 51/51/51 11/11/11
f 11/11/11 51/51/51 52/52/52
f 11/11/11 52/52/52 12/12/12
f 12/12/12 52/52/52 53/53/53
f 12/12/12 53/53/53 13/13/13
f 13/13/13 53/53/53 54/54/54
f 13/13/13 54/54/54 14/14/14
f 14/14/14 54/54/54 55/55/55
f 14/14/14 55/55/55 15/15/15
f 15/15/15 55/55/55 56/56/56
f 15/15/15 56/56/56 16/16/16
f 16/16/16 56/56/56 57/57/57
f 16/16/16 57/57/57 17/17/17
f 17/17/17 57/57/57 58/58/58
f 17/17/17 58/58/58 18/18/18
f 18/18/18 58/58/58 59/59/59
f 18/18/18 59/59/59 19/19/19
f 19/19/19 59/59/59 60/60/60
f 19/19/19 60/60/60 20/20/20
f 20/20/20 60/60/60 61/61/61
f 20/20/20 61/61/61 21/21/21
f 21/21/21 61/61/61 62/62/62
f 21/21/21 62/62/62 22/22/22
f 22/22/22 62/62/62 63/63/63
f 22/22/22 63/63/63 23/23/23
f 23/23/23 63/63/63 64/64/64
f 23/23/23 64/64/64 24/24/24
f 24/24/24 64/64/64 65/65/65
f 24/24/24 65/65/65 25/25/25
f 25/25/25 65/65/65 66/66/66
f 25/25/25 66/66/66 26/26/26
f 26/26/26 66/66/66 67/67/67
f 26/26/26 67/67/67 27/27/27
f 27/27/27 67/67/67 68/68/68
f 27/27/27 68/68/68 28/28/28
f 28/28/28 68/68/68 69/69/69
f 28/28/28 69/69/69 29/29/29
f 29/29/29 69/69/69 70/70/70
f 29/29/29 70/70/70 30/30/30
f 30/30/30 70/70/70 71/71/71
f 30/30/30 71/71/71 31/31/31
f 31/31/31 71/71/71 72/72/72
f 31/31/31 72/72/72 32/32/32
f 32/32/32 72/72/72 73/73/73
f 32/32/32 73/73/73 33/33/33
f 33/33/33 73/73/73 74/74/74
f 33/33/33 74/74/74 34/34/34
f 34/34/34 74/74/74 75/75/75
f 34/34/34 75/75/75 35/35/35
f 35/35/35 75/75/75 76/76/76
f 35/35/35 76/76/76 36/36/36
f 36/36/36 76/76/76 77/77/77
f 36/36/36 77/77/77 37/37/37
f 37/37/37 77/77/77 78/78/78
f 37/37/37 78/78/78 38/38/38
f 38/38/38 78/78/78 79/79/79
f 38/38/38 79/79/79 39/39/39
f 39/39/39 79/79/79 80/80/80
f 39/39/39 80/80/80 40/40/40
f 40/40/40 80/80/80 41/41/41
f 40/40/40 41/41/41 1/1/1
f 41/41/41 81/81/81 82/82/82
f 41/41/41 82/82/82 42/42/42
f 42/42/42 82/82/82 83/83/83
f 42/42/42 83/83/83 43/43/43
f 43/43/43 83/83/83 84/84/84
f 43/43/43 84/84/84 44/44/44
f 44/44/44 84/84/84 85/85/85
f 44/44/44 85/85/85 45/45/45
f 45/45/45 85/85/85 86/86/86
f 45/45/45 86/86/86 46/46/46
f 46/46/46 86/86/86 87/87/87
f 46/46/46 87/87/87 47/47/47
f 47/47/47 87/87/87 88/88/88
f 47/47/47 88/88/88 48/48/48
f 48/48/48 88/88/88 89/89/89
f 48/48/48 89/89/89 49/49/49
f 49/49/49 89/89/89 90/90/90
f 49/49/49 90/90/90 50/50/50
f 50/50/50 90/90/90 91/91/91
f 50/50/50 91/91/91 51/51/51
f 51/51/51 91/91/91 92/92/92
f 51/51/51 92/92/92 52/52/52
f 52/52/52 92/92/92 93/93/93
f 52/52/52 93/93/93 53/53/53
f 53/53/53 93/93/93 94/94/94
f 53/53/53 94/94/94 54/54/54
f 54/54/54 94/94/94 95/95/95
f 54/54/54 95/95/95 55/55/55
f 55/55/55 95/95/95 96/96/96
f 55/55/55 96/96/96 56/56/56
f 56/56/56 96/96/96 97/97/97
f 56/56/56 97/97/97 57/57/57
f 57/57/57 97/97/97 98/98/98
f 57/57/57 98/98/98 58/58/58
f 58/58/58 98/98/98 99/99/99
f 58/58/58 99/99/99 59/59/59
f 59/59/59 99/99/99 100/100/100
f 59/59/59 100/100/100 60/60/60
f 60/60/60 100/100/100 101/101/101
f 60/60/60 101/101/101 61/61/61
f 61/61/61 101/101/101 102/102/102
f 61/61/61 102/102/102 62/62/62
f 62/62/62 102/102/102 103/103/103
f 62/62/62 103/103/103 63/63/63
f 63/63/63 103/103/103 104/104/104
f 63/63/63 104/104/104 64/64/64
f 64/64/64 104/104/104 105/105/105
f 64/64/64 105/105/105 65/65/65
f 65/65/65 105/105/105 106/106/106
f 65/65/65 106/106/106 66/66/66
f 66/66/66 106/106/106 107/107/107
f 66/66/66 107/107/107 67/67/67
f 67/67/67 107/107/107 108/108/108
f 67/67/67 108/108/108 68/68/68
f 68/68/68 108/108/108 109/109/109
f 68/68/68 109/109/109 69/69/69
f 69/69/69 109/109/109 110/110/110
f 69/69/69 110/110/110 70/70/70
f 70/70/70 110/110/110 111/111/111
f 70/70/70 111/111/111 71/71/71
f 71/71/71 111/111/111 112/112/112
f 71/71/71 112/112/112 72/72/72
f 72/72/72 112/112/112 113/113/113
f 72/72/72 113/113/113 73/73/73
f 73/73/73 113/113/113 114/114/114
f 73/73/73 114/114/114 74/74/74
f 74/74/74 114/114/114 115/115/115
f 74/74/74 115/115/115 75/75/75
f 75/75/75 115/115/115 116/116/116
f 75/75/75 116/116/116 76/76/76
f 76/76/76 116/116/116 117/117/117
f 76/76/76 117/117/117 77/77/77
f 77/77/77 117/117/117 118/118/118
f 77/77/77 118/118/118 78/78/78
f 78/78/78 118/118/118 119/119/119
f 78/78/78 119/119/119 79/79/79
f 79/79/79 119/119/119 120/120/120
f 79/79/79 120/120/120 80/80/80
f 80/80/80 120/120/120 81/81/81
f 80/80/80 81/81/81 41/41/41
f 81/81/81 121/121/121 122/122/122
f 81/81/81 122/122/122 82/82/82
f 82/82/82 122/122/122 123/123/123
f 82/82/82 123/123/123 83/83/83
f 83/83/83 123/123/123 124/124/124
f 83/83/83 124/124/124 84/84/84
f 84/84/84 124/124/124 125/125/125
f 84/84/84 125/125/125 85/85/85
f 85/85/85 125/125/125 126/126/126
f 85/85/85 126/126/126 86/86/86
f 86/86/86 126/126/126 127/127/127
f 86/86/86 127/127/127 87/87/87
f 87/87/87 127/127/127 128/128/128
f 87/87/87 128/128/128 88/88/88
f 88/88/88 128/128/128 129/129/129
f 88/88/88 129/129/129 89/89/89
f 89/89/89 129/129/129 130/130/130
f 89/89/89 130/130/130 90/90/90
f 90/90/90 130/130/130 131/131/131
f 90/90/90 131/131/131 91/91/91
f 91/91/91 131/131/131 132/132/132
f 91/91/91 132/132/132 92/92/92
f 92/92/92 132/132/132 133/133/133
f 92/92/92 133/133/133 93/93/93
f 93/93/93 133/133/133 134/134/134
f 93/93/93 134/134/134 94/94/94
f 94/94/94 134/134/134 135/135/135
f 94/94/94 135/135/135 95/95/95
f 95/95/95 135/135/135 136/136/136
f 95/95/95 136/136/136 96/96/96
f 96/96/96 136/136/136 137/137/137
f 96/96/96 137/137/137 97/97/97
f 97/97/97 137/137/137 138/138/138
f 97/97/97 138/138/138 98/98/98
f 98/98/98 138/138/138 139/139/139
f 98/98/98 139/139/139 99/99/99
f 99/99/99 139/139/139 140/140/140
f 99/99/99 140/140/140 100/100/100
f 100/100/100 140/140/140 141/141/141
f 100/100/100 141/141/141 101/101/101
f 101/101/101 141/141/141 142/142/142
f 101/101/101 142/142/142 102/102/102
f 102/102/102 142/142/142 143/143/143
f 102/102/102 143/143/143 103/103/103
f 103/103/103 143/143/143 144/144/144
f 103/103/103 144/144/144 104/104/104
f 104/104/104 144/144/144 145/145/145
f 104/104/104 145/145/145 105/105/105
f 105/105/105 145/145/145 146/146/146
f 105/105/105 146/146/146 106/106/106
f 106/106/106 146/146/146 147/147/147
f 106/106/106 147/147/147 107/107/107
f 107/107/107 147/147/147 148/148/148
f 107/107/107 148/148/148 108/108/108
f 108/108/108 148/148/148 149/149/149
f 108/108/108 149/149/149 109/109/109
f 109/109/109 149/149/149 150/150/150
f 109/109/109 150/150/150 110/110/110
f 110/110/110 150/150/150 151/151/151
f 110/110/110 151/151/151 111/111/111
f 111/111/111 151/151/151 152/152/152
f 111/111/111 152/152/152 112/112/112
f 112/112/112 152/152/152 153/153/153
f 112/112/112 153/153/153 113/113/113
f 113/113/113 153/153/153 154/154/154
f 113/113/113 154/154/154 114/114/114
f 114/114/114 154/154/154 155/155/155
f 114/114/114 155/155/155 115/115/115
f 115/115/115 155/155/155 156/156/156
f 115/115/115 156/156/156 116/116/116
f 116/116/116 156/156/156 157/157/157
f 116/116/116 157/157/157 117/117/117
f 117/117/117 157/157/157 158/158/158
f 117/117/117 158/158/158 118/118/118
f 118/118/118 158/158/158 159/159/159
f 118/118/118 159/159/159 119/119/119
f 119/119/119 159/159/159 160/160/160
f 119/119/119 160/160/160 120/120/120
f 120/120/120 160/160/160 121/121/121
f 120/120/120 121/121/121 81/81/81
f 121/121/121 161/161/161 162/162/162
f 121/121/121 162/162/162 122/122/122
f 122/122/122 162/162/162 163/163/163
f 122/122/122 163/163/163 123/123/123
f 123/123/123 163/163/163 164/164/164
f 123/123/123 164/164/164 124/124/124
f 124/124/124 164/164/164 165/165/165
f 124/124/124 165/165/165 125/125/125
f 125/125/125 165/165/165 166/166/166
f 125/125/125 166/166/166 126/126/126
f 126/126/126 166/166/166 167/167/167
f 126/126/126 167/167/167 127/127/127
f 127/127/127 167/167/167 168/168/168
f 127/127/127 168/168/168 128/128/128
f 128/128/128 168/168/168 169/169/169
f 128/128/128 169/169/169 129/129/129
f 129/129/129 169/169/169 170/170/170
f 129/129/129 170/170/170 130/130/130
f 130/130/130 170/170/170 171/171/171
f 130/130/130 171/171/171 131/131/131
f 131/131/131 171/171/171 172/172/172
f 131/131/131 172/172/172 132/132/132
f 132/132/132 172/172/172 173/173/173
f 132/132/132 173/173/173 133/133/133
f 133/133/133 173/173/173 174/174/174
f 133/133/133 174/174/174 134/134/134
f 134/134/134 174/174/174 175/175/175
f 134/134/134 175/175/175 135/135/135
f 135/135/135 175/175/175 176/176/176
f 135/135/135 176/176/176 136/136/136
f 136/136/136 176/176/176 177/177/177
f 136/136/136 177/177/177 137/137/137
f 137/137/137 177/177/177 178/178/178
f 137/137/137 178/178/178 138/138/138
f 138/138/138 178/178/178 179/179/179
f 138/138/138 179/179/179 139/139/139
f 139/139/139 179/179/179 180/180/180
f 139/139/139 180/180/180 140/140/140
f 140/140/140 180/180/180 181/181/181
f 140/140/140 181/181/181 141/141/141
f 141/141/141 181/181/181 182/182/182
f 141/141/141 182/182/182 142/142/142
f 142/142/142 182/182/182 183/183/183
f 142/142/142 183/183/183 143/143/143
f 143/143/143 183/183/183 184/184/184
f 143/143/143 184/184/184 144/144/144
f 144/144/144 184/184/184 185/185/185
f 144/144/144 185/185/185 145/145/145
f 145/145/145 185/185/185 186/186/186
f 145/145/145 186/186/186 146/146/146
f 146/146/146 186/186/186 187/187/187
f 146/146/146 187/187/187 147/147/147
f 147/147/147 187/187/187 188/188/188
f 147/147/147 188/188/188 148/148/148
f 148/148/148 188/188/188 189/189/189
f 148/148/148 189/189/189 149/149/149
f 149/149/149 189/189/189 190/190/190
f 149/149/149 190/190/190 150/150/150
f 150/150/150 190/190/190 191/191/191
f 150/150/150 191/191/191 151/151/151
f 151/151/151 191/191/191 192/192/192
f 151/151/151 192/192/192 152/152/152
f 152/152/152 192/192/192 193/193/193
f 152/152/152 193/193/193 153/153/153
f 153/153/153 193/193/193 194/194/194
f 153/153/153 194/194/194 154/154/154
f 154/154/154 194/194/194 195/195/195
f 154/154/154 195/195/195 155/155/155
f 155/155/155 195/195/195 196/196/196
f 155/155/155 196/196/196 156/156/156
f 156/156/156 196/196/196 197/197/197
f 156/156/156 197/197/197 157/157/157
f 157/157/157 197/197/197 198/198/198
f 157/157/157 198/198/198 158/158/158
f 158/158/158 198/198/198 199/199/199
f 158/158/158 199/199/199 159/159/159
f 159/159/159 199/199/199 200/200/200
f 159/159/159 200/200/200 160/160/160
f 160/160/160 200/200/200 161/161/161
f 160/160/160 161/161/161 121/121/121
f 161/161/161 201/201/201 202/202/202
f 161/161/161 202/202/202 162/162/162
f 162/162/162 202/202/202 203/203/203
f 162/162/162 203/203/203 163/163/163
f 163/163/163 203/203/203 204/204/204
f 163/163/163 204/204/204 164/164/164
f 164/164/164 204/204/204 205/205/205
f 164/164/164 205/205/205 165/165/165
f 165/165/165 205/205/205 206/206/206
f 165/165/165 206/206/206 166/166/166
f 166/166/166 206/206/206 207/207/207
f 166/166/166 207/207/207 167/167/167
f 167/167/167 207/207/207 208/208/208
f 167/167/167 208/208/208 168/168/168
f 168/168/168 208/208/208 209/209/209
f 168/168/168 209/209/209 169/169/169
f 169/169/169 209/209/209 210/210/210
f 169/169/169 210/210/210 170/170/170
f 170/170/170 210/210/210 211/211/211
f 170/170/170 211/211/211 171/171/171
f 171/171/171 211/211/211 212/212/212
f 171/171/171 212/212/212 172/172/172
f 172/172/172 212/212/212 213/213/213
f 172/172/172 213/213/213 173/173/173
f 173/173/173 213/213/213 214/214/214
f 173/173/173 214/214/214 174/174/174
f 174/174/174 214/214/214 215/215/215
f 174/174/174 215/215/215 175/175/175
f 175/175/175 215/215/215 216/216/216
f 175/175/175 216/216/216 176/176/176
f 176/176/176 216/216/216 217/217/217
f 176/176/176 217/217/217 177/177/177
f 177/177/177 217/217/217 218/218/218
f 177/177/177 218/218/218 178/178/178
f 178/178/178 218/218/218 219/219/219
f 178/178/178 219/219/219 179/179/179
f 179/179/179 219/219/219 220/220/220
f 179/179/179 220/220/220 180/180/180
f 180/180/180 220/220/220 221/221/221
f 180/180/180 221/221/221 181/181/181
f 181/181/181 221/221/221 222/222/222
f 181/181/181 222/222/222 182/182/182
f 182/182/182 222/222/222 223/223/223
f 182/182/182 223/223/223 183/183/183
f 183/183/183 223/223/223 224/224/224
f 183/183/183 224/224/224 184/184/184
f 184/184/184 224/224/224 225/225/225
f 184/184/184 225/225/225 185/185/185
f 185/185/185 225/225/225 226/226/226
f 185/185/185 226/226/226 186/186/186
f 186/186/186 226/226/226 227/227/227
f 186/186/186 227/227/227 187/187/187
f 187/187/187 227/227/227 228/228/228
f 187/187/187 228/228/228 188/188/188
f 188/188/188 228/228/228 229/229/229
f 188/188/188 229/229/229 189/189/189
f 189/189/189 229/229/229 230/230/230
f 189/189/189 230/230/230 190/190/190
f 190/190/190 230/230/230 231/231/231
f 190/190/190 231/231/231 191/191/191
f 191/191/191 231/231/231 232/232/232
f 191/191/191 232/232/232 192/192/192
f 192/192/192 232/232/232 233/233/233
f 192/192/192 233/233/233 193/193/193
f 193/193/193 233/233/233 234/234/234
f 193/193/193 234/234/234 194/194/194
f 194/194/194 234/234/234 235/235/235
f 194/194/194 235/235/235 195/195/195
f 195/195/195 235/235/235 236/236/236
f 195/195/195 236/236/236 196/196/196
f 196/196/196 236/236/236 237/237/237
f 196/196/196 237/237/237 197/197/197
f 197/197/197 237/237/237 238/238/238
f 197/197/197 238/238/238 198/198/198
f 198/198/198 238/238/238 239/239/239
f 198/198/198 239/239/239 199/199/199
f 199/199/199 239/239/239 240/240/240
f 199/199/199 240/240/240 200/200/200
f 200/200/200 240/240/240 201/201/201
f 200/200/200 201/201/201 161/161/161
f 241/241/241 1/1/1 2/2/2
f 242/242/242 202/202/202 201/201/201
f 241/241/241 2/2/2 3/3/3
f 242/242/242 203/203/203 202/202/202
f 241/241/241 3/3/3 4/4/4
f 242/242/242 204/204/204 203/203/203
f 241/241/241 4/4/4 5/5/5
f 242/242/242 205/205/205 204/204/204
f 241/241/241 5/5/5 6/6/6
f 242/242/242 206/206/206 205/205/205
f 241/241/241 6/6/6 7/7/7
f 242/242/242 207/207/207 206/206/206
f 241/241/241 7/7/7 8/8/8
f 242/242/242 208/208/208 207/207/207
f 241/241/241 8/8/8 9/9/9
f 242/242/242 209/209/209 208/208/208
f 241/241/241 9/9/9 10/10/10
f 242/242/242 210/210/210 209/209/209
f 241/241/241 10/10/10 11/11/11
f 242/242/242 211/211/211 210/210/210
f 241/241/241 11/11/11 12/12/12
f 242/242/242 212/212/212 211/211/211
f 241/241/241 12/12/12 13/13/13
f 242/242/242 213/213/213 212/212/212
f 241/241/241 13/13/13 14/14/14
f 242/242/242 214/214/214 213/213/213
f 241/241/241 14/14/14 15/15/15
f 242/242/242 215/215/215 214/214/214
f 241/241/241 15/15/15 16/16/16
f 242/242/242 216/216/216 215/215/215
f 241/241/241 16/16/16 17/17/17
f 242/242/242 217/217/217 216/216/216
f 241/241/241 17/17/17 18/18/18
f 242/242/242 218/218/218 217/217/217
f 241/241/241 18/18/18 19/19/19
f 242/242/242 219/219/219 218/218/218
f 241/241/241 19/19/19 20/20/20
f 242/242/242 220/220/220 219/219/219
f 241/241/241 20/20/20 21/21/21
f 242/242/242 221/221/221 220/220/220
f 241/241/241 21/21/21 22/22/22
f 242/242/242 222/222/222 221/221/221
f 241/241/241 22/22/22 23/23/23
f 242/242/242 223/223/223 222/222/222
f 241/241/241 23/23/23 24/24/24
f 242/242/242 224/224/224 223/223/223
f 241/241/241 24/24/24 25/25/25
f 242/242/242 225/225/225 224/224/224
f 241/241/241 25/25/25 26/26/26
f 242/242/242 226/226/226 225/225/225
f 241/241/241 26/26/26 27/27/27
f 242/242/242 227/227/227 226/226/226
f 241/241/241 27/27/27 28/28/28
f 242/242/242 228/228/228 227/227/227
f 241/241/241 28/28/28 29/29/29
f 242/242/242 229/229/229 228/228/228
f 241/241/241 29/29/29 30/30/30
f 242/242/242 230/230/230 229/229/229
f 241/241/241 30/30/30 31/31/31
f 242/242/242 231/231/231 230/230/230
f 241/241/241 31/31/31 32/32/32
f 242/242/242 232/232/232 231/231/231
f 241/241/241 32/32/32 33/33/33
f 242/242/242 233/233/233 232/232/232
f 241/241/241 33/33/33 34/34/34
f 242/242/242 234/234/234 233/233/233
f 241/241/241 34/34/34 35/35/35
f 242/242/242 235/235/235 234/234/234
f 241/241/241 35/35/35 36/36/36
f 242/242/242 236/236/236 235/235/235
f 241/241/241 36/36/36 37/37/37
f 242/242/242 237/237/237 236/236/236
f 241/241/241 37/37/37 38/38/38
f 242/242/242 238/238/238 237/237/237
f 241/241/241 38/38/38 39/39/39
f 242/242/242 239/239/239 238/238/238
f 241/241/241 39/39/39 40/40/40
f 242/242/242 240/240/240 239/239/239
f 241/241/241 40/40/40 1/1/1
f 242/242/242 201/201/201 240/240/240
