# Original title scenery; closed shared-vertex topology.
mtllib title_sandstone.mtl
o TitleBoulder
usemtl title_sandstone
v 0.9130754 0.0000000 0.0000000
v 0.8876604 0.0000000 0.2378479
v 0.7582851 0.0000000 0.4377961
v 0.5988619 0.0000000 0.5988619
v 0.4221498 0.0000000 0.7311849
v 0.2142692 0.0000000 0.7996637
v 0.0000000 0.0000000 0.7912824
v -0.2042310 0.0000000 0.7622004
v -0.4278502 0.0000000 0.7410583
v -0.6619373 0.0000000 0.6619373
v -0.8156601 0.0000000 0.4709216
v -0.8346233 0.0000000 0.2236366
v -0.7869246 0.0000000 0.0000000
v -0.7544135 0.0000000 -0.2021445
v -0.7139581 0.0000000 -0.4122039
v -0.6032197 0.0000000 -0.6032197
v -0.4278502 0.0000000 -0.7410583
v -0.2257231 0.0000000 -0.8424102
v -0.0000000 0.0000000 -0.9087176
v 0.2357614 0.0000000 -0.8798735
v 0.4221498 0.0000000 -0.7311849
v 0.5401442 0.0000000 -0.5401442
v 0.6565831 0.0000000 -0.3790784
v 0.8074506 0.0000000 -0.2163557
v 1.0877064 0.1537500 0.0000000
v 1.0578064 0.1564017 0.2798211
v 0.9056001 0.1564952 0.5150542
v 0.7180434 0.1548483 0.7045434
v 0.5101468 0.1527452 0.8602175
v 0.2655815 0.1510983 0.9407808
v 0.0135000 0.1500000 0.9309204
v -0.2267717 0.1489017 0.8967064
v -0.4898532 0.1472548 0.8718333
v -0.7652498 0.1451517 0.7787498
v -0.9461001 0.1435048 0.5540254
v -0.9684097 0.1435983 0.2631019
v -0.9122936 0.1462500 0.0000000
v -0.8740453 0.1510983 -0.2378170
v -0.8264507 0.1564952 -0.4849458
v -0.6961702 0.1601517 -0.7096702
v -0.4898532 0.1602452 -0.8718333
v -0.2520566 0.1564017 -0.9910708
v 0.0135000 0.1500000 -1.0690796
v 0.2908663 0.1435983 -1.0351453
v 0.5101468 0.1397548 -0.8602175
v 0.6489638 0.1398483 -0.6354638
v 0.7859507 0.1435048 -0.4459746
v 0.9634419 0.1489017 -0.2545362
v 1.0377699 0.5637500 0.0000000
v 1.0102619 0.5734727 0.2574354
v 0.8702321 0.5738157 0.4738499
v 0.6976799 0.5677773 0.6481799
v 0.5064151 0.5600657 0.7914001
v 0.2814150 0.5540273 0.8655184
v 0.0495000 0.5500000 0.8564468
v -0.1715500 0.5459727 0.8249698
v -0.4135849 0.5399343 0.8020866
v -0.6669498 0.5322227 0.7164498
v -0.8333321 0.5261843 0.5097033
v -0.8538569 0.5265273 0.2420538
v -0.8022301 0.5362500 0.0000000
v -0.7670417 0.5540273 -0.2187917
v -0.7232547 0.5738157 -0.4461501
v -0.6033966 0.5872227 -0.6528966
v -0.4135849 0.5875657 -0.8020866
v -0.1948121 0.5734727 -0.9117851
v 0.0495000 0.5500000 -0.9835532
v 0.3046770 0.5265273 -0.9523337
v 0.5064151 0.5124343 -0.7914001
v 0.6341267 0.5127773 -0.5846267
v 0.7601547 0.5261843 -0.4102967
v 0.9234466 0.5459727 -0.2341733
v 0.8517286 0.8917500 0.0000000
v 0.8302006 0.9071296 0.2014712
v 0.7206121 0.9076721 0.3708390
v 0.5855712 0.8981204 0.5072712
v 0.4358857 0.8859221 0.6193566
v 0.2597987 0.8763704 0.6773622
v 0.0783000 0.8700000 0.6702627
v -0.0946957 0.8636296 0.6456286
v -0.2841143 0.8540779 0.6277200
v -0.4823998 0.8418796 0.5606998
v -0.6126121 0.8323279 0.3988983
v -0.6286750 0.8328704 0.1894334
v -0.5882714 0.8482500 0.0000000
v -0.5607326 0.8763704 -0.1712283
v -0.5264645 0.9076721 -0.3491610
v -0.4326625 0.9288796 -0.5109625
v -0.2841143 0.9294221 -0.6277200
v -0.1129008 0.9071296 -0.7135710
v 0.0783000 0.8700000 -0.7697373
v 0.2780038 0.8328704 -0.7453046
v 0.4358857 0.8105779 -0.6193566
v 0.5358339 0.8111204 -0.4575339
v 0.6344645 0.8323279 -0.3211017
v 0.7622582 0.8636296 -0.1832660
v 0.4767143 1.0250000 0.0000000
v 0.4659503 1.0426777 0.1007356
v 0.4111560 1.0433013 0.1854195
v 0.3436356 1.0323223 0.2536356
v 0.2687929 1.0183013 0.3096783
v 0.1807493 1.0073223 0.3386811
v 0.0900000 1.0000000 0.3351314
v 0.0035022 0.9926777 0.3228143
v -0.0912071 0.9816987 0.3138600
v -0.1903499 0.9676777 0.2803499
v -0.2554560 0.9566987 0.1994491
v -0.2634875 0.9573223 0.0947167
v -0.2432857 0.9750000 0.0000000
v -0.2295163 1.0073223 -0.0856141
v -0.2123823 1.0433013 -0.1745805
v -0.1654813 1.0676777 -0.2554813
v -0.0912071 1.0683013 -0.3138600
v -0.0056004 1.0426777 -0.3567855
v 0.0900000 1.0000000 -0.3848686
v 0.1898519 0.9573223 -0.3726523
v 0.2687929 0.9316987 -0.3096783
v 0.3187670 0.9323223 -0.2287670
v 0.3680823 0.9566987 -0.1605509
v 0.4319791 0.9926777 -0.0916330
v 0.0000000 0.0000000 0.0000000
v 0.0900000 1.0000000 0.0000000
vt 0.5 0.5
vt 0.5 0.5
vt 0.5 0.5
vt 0.5 0.5
vt 0.5 0.5
vt 0.5 0.5
vt 0.5 0.5
vt 0.5 0.5
vt 0.5 0.5
vt 0.5 0.5
vt 0.5 0.5
vt 0.5 0.5
vt 0.5 0.5
vt 0.5 0.5
vt 0.5 0.5
vt 0.5 0.5
vt 0.5 0.5
vt 0.5 0.5
vt 0.5 0.5
vt 0.5 0.5
vt 0.5 0.5
vt 0.5 0.5
vt 0.5 0.5
vt 0.5 0.5
vt 0.5 0.5
vt 0.5 0.5
vt 0.5 0.5
vt 0.5 0.5
vt 0.5 0.5
vt 0.5 0.5
vt 0.5 0.5
vt 0.5 0.5
vt 0.5 0.5
vt 0.5 0.5
vt 0.5 0.5
vt 0.5 0.5
vt 0.5 0.5
vt 0.5 0.5
vt 0.5 0.5
vt 0.5 0.5
vt 0.5 0.5
vt 0.5 0.5
vt 0.5 0.5
vt 0.5 0.5
vt 0.5 0.5
vt 0.5 0.5
vt 0.5 0.5
vt 0.5 0.5
vt 0.5 0.5
vt 0.5 0.5
vt 0.5 0.5
vt 0.5 0.5
vt 0.5 0.5
vt 0.5 0.5
vt 0.5 0.5
vt 0.5 0.5
vt 0.5 0.5
vt 0.5 0.5
vt 0.5 0.5
vt 0.5 0.5
vt 0.5 0.5
vt 0.5 0.5
vt 0.5 0.5
vt 0.5 0.5
vt 0.5 0.5
vt 0.5 0.5
vt 0.5 0.5
vt 0.5 0.5
vt 0.5 0.5
vt 0.5 0.5
vt 0.5 0.5
vt 0.5 0.5
vt 0.5 0.5
vt 0.5 0.5
vt 0.5 0.5
vt 0.5 0.5
vt 0.5 0.5
vt 0.5 0.5
vt 0.5 0.5
vt 0.5 0.5
vt 0.5 0.5
vt 0.5 0.5
vt 0.5 0.5
vt 0.5 0.5
vt 0.5 0.5
vt 0.5 0.5
vt 0.5 0.5
vt 0.5 0.5
vt 0.5 0.5
vt 0.5 0.5
vt 0.5 0.5
vt 0.5 0.5
vt 0.5 0.5
vt 0.5 0.5
vt 0.5 0.5
vt 0.5 0.5
vt 0.5 0.5
vt 0.5 0.5
vt 0.5 0.5
vt 0.5 0.5
vt 0.5 0.5
vt 0.5 0.5
vt 0.5 0.5
vt 0.5 0.5
vt 0.5 0.5
vt 0.5 0.5
vt 0.5 0.5
vt 0.5 0.5
vt 0.5 0.5
vt 0.5 0.5
vt 0.5 0.5
vt 0.5 0.5
vt 0.5 0.5
vt 0.5 0.5
vt 0.5 0.5
vt 0.5 0.5
vt 0.5 0.5
vt 0.5 0.5
vt 0.5 0.5
vt 0.5 0.5
vt 0.5 0.5
vt 0.5 0.5
vn 0.2045964 -0.9787602 -0.0129887
vn 0.1863943 -0.9787860 0.0850599
vn 0.1621752 -0.9768366 0.1396044
vn 0.1389680 -0.9760717 0.1672484
vn 0.0891069 -0.9761876 0.1977818
vn 0.0168728 -0.9751233 0.2210202
vn -0.0243655 -0.9735167 0.2273140
vn -0.0246543 -0.9725448 0.2314061
vn -0.0557916 -0.9752054 0.2141536
vn -0.1265232 -0.9811191 0.1462778
vn -0.1866854 -0.9811523 0.0498866
vn -0.2151369 -0.9762462 -0.0256816
vn -0.2279968 -0.9727525 -0.0420728
vn -0.2385793 -0.9700675 -0.0452664
vn -0.2173149 -0.9710560 -0.0991182
vn -0.1631328 -0.9729376 -0.1636464
vn -0.1155995 -0.9737635 -0.1960140
vn -0.0748468 -0.9758334 -0.2052976
vn -0.0031715 -0.9799236 -0.1993480
vn 0.0911595 -0.9814107 -0.1688875
vn 0.1632710 -0.9782232 -0.1281483
vn 0.1819353 -0.9755482 -0.1233099
vn 0.1781290 -0.9722715 -0.1515195
vn 0.1959593 -0.9737582 -0.1157363
vn 0.9713840 -0.2016531 -0.1254957
vn 0.9101897 -0.2044198 0.3602322
vn 0.7572429 -0.1877811 0.6255569
vn 0.6393499 -0.1739574 0.7489797
vn 0.4357625 -0.1572579 0.8862172
vn 0.1131769 -0.1300034 0.9850331
vn -0.0966544 -0.1066916 0.9895832
vn -0.1133767 -0.0968283 0.9888225
vn -0.2305962 -0.0863428 0.9692112
vn -0.6054579 -0.0728801 0.7925334
vn -0.9448543 -0.0555191 0.3227506
vn -0.9959024 -0.0406814 -0.0807682
vn -0.9838542 -0.0293795 -0.1765439
vn -0.9849418 -0.0193489 -0.1718003
vn -0.9267572 -0.0260853 -0.3747541
vn -0.7338181 -0.0496934 -0.6775261
vn -0.5191656 -0.0691634 -0.8518706
vn -0.3484824 -0.0846082 -0.9334889
vn -0.0496629 -0.1215732 -0.9913393
vn 0.4173242 -0.1771963 -0.8913147
vn 0.7451949 -0.2036566 -0.6349871
vn 0.8126303 -0.1974765 -0.5483019
vn 0.7533995 -0.1737683 -0.6341875
vn 0.8286579 -0.1747489 -0.5317791
vn 0.9345559 0.2920399 -0.2032685
vn 0.9083462 0.2952639 0.2961864
vn 0.7501953 0.2870684 0.5956498
vn 0.6262059 0.2924266 0.7227398
vn 0.4438710 0.3101580 0.8407024
vn 0.1409114 0.3282896 0.9340075
vn -0.0862908 0.3363465 0.9377766
vn -0.1202083 0.3425397 0.9317814
vn -0.2003662 0.3675612 0.9081587
vn -0.5057805 0.4312443 0.7471375
vn -0.8186899 0.4591408 0.3448719
vn -0.9043262 0.4255948 -0.0326059
vn -0.9034908 0.4039123 -0.1433852
vn -0.9098682 0.3961799 -0.1232129
vn -0.8732489 0.3945337 -0.2859711
vn -0.7101526 0.3887377 -0.5869977
vn -0.4904581 0.3742620 -0.7870063
vn -0.3146680 0.3744053 -0.8722412
vn -0.0553327 0.3798508 -0.9233914
vn 0.3636838 0.3538242 -0.8617091
vn 0.7061915 0.2917766 -0.6451047
vn 0.7975699 0.2635927 -0.5425874
vn 0.7305675 0.2666417 -0.6286281
vn 0.7780516 0.2711863 -0.5666514
vn 0.6474567 0.7223802 -0.2428305
vn 0.6555328 0.7376092 0.1618936
vn 0.5412457 0.7182620 0.4372103
vn 0.4339221 0.7167772 0.5458407
vn 0.3035257 0.7269191 0.6160039
vn 0.0949210 0.7289685 0.6779343
vn -0.0800078 0.7246795 0.6844255
vn -0.1183584 0.7338385 0.6689337
vn -0.1637230 0.7584179 0.6308702
vn -0.3424277 0.7997633 0.4930740
vn -0.5357662 0.8084491 0.2436486
vn -0.6284110 0.7775974 0.0210214
vn -0.6557007 0.7545289 -0.0272545
vn -0.6784717 0.7344658 0.0153662
vn -0.6699722 0.7342866 -0.1093638
vn -0.5428630 0.7492896 -0.3792953
vn -0.3251060 0.7470011 -0.5799099
vn -0.1328274 0.7540492 -0.6432469
vn 0.0663977 0.7690993 -0.6356710
vn 0.3147390 0.7594035 -0.5694257
vn 0.5196275 0.7205332 -0.4591505
vn 0.5658044 0.7008739 -0.4343284
vn 0.4889204 0.6864324 -0.5383004
vn 0.5216934 0.6800702 -0.5151122
vn 0.1837128 0.9438806 -0.2744795
vn 0.2065163 0.9774174 -0.0447911
vn 0.1516611 0.9772931 0.1479764
vn 0.0805658 0.9693233 0.2322101
vn 0.0305490 0.9680091 0.2490485
vn -0.0230821 0.9665537 0.2554237
vn -0.0802140 0.9642207 0.2526741
vn -0.1080870 0.9657762 0.2357826
vn -0.1319798 0.9697601 0.2052964
vn -0.1857816 0.9719021 0.1445388
vn -0.2322862 0.9698256 0.0740365
vn -0.2464691 0.9673664 0.0587805
vn -0.2521012 0.9560815 0.1495095
vn -0.2862647 0.9266002 0.2438535
vn -0.3097726 0.9329249 0.1835540
vn -0.2327710 0.9725005 -0.0077685
vn -0.0368700 0.9802498 -0.1942959
vn 0.1653863 0.9510263 -0.2611444
vn 0.2863115 0.9294423 -0.2327290
vn 0.3343575 0.9252065 -0.1794379
vn 0.3131669 0.9366257 -0.1570312
vn 0.2023111 0.9505798 -0.2355171
vn 0.0861300 0.9188383 -0.3851204
vn 0.1049650 0.9037905 -0.4149037
vn 0.0000000 -1.0000000 0.0000000
vn 0.0092462 0.9999496 -0.0039092
f 1/1/1 25/25/25 26/26/26
f 1/1/1 26/26/26 2/2/2
f 2/2/2 26/26/26 27/27/27
f 2/2/2 27/27/27 3/3/3
f 3/3/3 27/27/27 28/28/28
f 3/3/3 28/28/28 4/4/4
f 4/4/4 28/28/28 29/29/29
f 4/4/4 29/29/29 5/5/5
f 5/5/5 29/29/29 30/30/30
f 5/5/5 30/30/30 6/6/6
f 6/6/6 30/30/30 31/31/31
f 6/6/6 31/31/31 7/7/7
f 7/7/7 31/31/31 32/32/32
f 7/7/7 32/32/32 8/8/8
f 8/8/8 32/32/32 33/33/33
f 8/8/8 33/33/33 9/9/9
f 9/9/9 33/33/33 34/34/34
f 9/9/9 34/34/34 10/10/10
f 10/10/10 34/34/34 35/35/35
f 10/10/10 35/35/35 11/11/11
f 11/11/11 35/35/35 36/36/36
f 11/11/11 36/36/36 12/12/12
f 12/12/12 36/36/36 37/37/37
f 12/12/12 37/37/37 13/13/13
f 13/13/13 37/37/37 38/38/38
f 13/13/13 38/38/38 14/14/14
f 14/14/14 38/38/38 39/39/39
f 14/14/14 39/39/39 15/15/15
f 15/15/15 39/39/39 40/40/40
f 15/15/15 40/40/40 16/16/16
f 16/16/16 40/40/40 41/41/41
f 16/16/16 41/41/41 17/17/17
f 17/17/17 41/41/41 42/42/42
f 17/17/17 42/42/42 18/18/18
f 18/18/18 42/42/42 43/43/43
f 18/18/18 43/43/43 19/19/19
f 19/19/19 43/43/43 44/44/44
f 19/19/19 44/44/44 20/20/20
f 20/20/20 44/44/44 45/45/45
f 20/20/20 45/45/45 21/21/21
f 21/21/21 45/45/45 46/46/46
f 21/21/21 46/46/46 22/22/22
f 22/22/22 46/46/46 47/47/47
f 22/22/22 47/47/47 23/23/23
f 23/23/23 47/47/47 48/48/48
f 23/23/23 48/48/48 24/24/24
f 24/24/24 48/48/48 25/25/25
f 24/24/24 25/25/25 1/1/1
f 25/25/25 49/49/49 50/50/50
f 25/25/25 50/50/50 26/26/26
f 26/26/26 50/50/50 51/51/51
f 26/26/26 51/51/51 27/27/27
f 27/27/27 51/51/51 52/52/52
f 27/27/27 52/52/52 28/28/28
f 28/28/28 52/52/52 53/53/53
f 28/28/28 53/53/53 29/29/29
f 29/29/29 53/53/53 54/54/54
f 29/29/29 54/54/54 30/30/30
f 30/30/30 54/54/54 55/55/55
f 30/30/30 55/55/55 31/31/31
f 31/31/31 55/55/55 56/56/56
f 31/31/31 56/56/56 32/32/32
f 32/32/32 56/56/56 57/57/57
f 32/32/32 57/57/57 33/33/33
f 33/33/33 57/57/57 58/58/58
f 33/33/33 58/58/58 34/34/34
f 34/34/34 58/58/58 59/59/59
f 34/34/34 59/59/59 35/35/35
f 35/35/35 59/59/59 60/60/60
f 35/35/35 60/60/60 36/36/36
f 36/36/36 60/60/60 61/61/61
f 36/36/36 61/61/61 37/37/37
f 37/37/37 61/61/61 62/62/62
f 37/37/37 62/62/62 38/38/38
f 38/38/38 62/62/62 63/63/63
f 38/38/38 63/63/63 39/39/39
f 39/39/39 63/63/63 64/64/64
f 39/39/39 64/64/64 40/40/40
f 40/40/40 64/64/64 65/65/65
f 40/40/40 65/65/65 41/41/41
f 41/41/41 65/65/65 66/66/66
f 41/41/41 66/66/66 42/42/42
f 42/42/42 66/66/66 67/67/67
f 42/42/42 67/67/67 43/43/43
f 43/43/43 67/67/67 68/68/68
f 43/43/43 68/68/68 44/44/44
f 44/44/44 68/68/68 69/69/69
f 44/44/44 69/69/69 45/45/45
f 45/45/45 69/69/69 70/70/70
f 45/45/45 70/70/70 46/46/46
f 46/46/46 70/70/70 71/71/71
f 46/46/46 71/71/71 47/47/47
f 47/47/47 71/71/71 72/72/72
f 47/47/47 72/72/72 48/48/48
f 48/48/48 72/72/72 49/49/49
f 48/48/48 49/49/49 25/25/25
f 49/49/49 73/73/73 74/74/74
f 49/49/49 74/74/74 50/50/50
f 50/50/50 74/74/74 75/75/75
f 50/50/50 75/75/75 51/51/51
f 51/51/51 75/75/75 76/76/76
f 51/51/51 76/76/76 52/52/52
f 52/52/52 76/76/76 77/77/77
f 52/52/52 77/77/77 53/53/53
f 53/53/53 77/77/77 78/78/78
f 53/53/53 78/78/78 54/54/54
f 54/54/54 78/78/78 79/79/79
f 54/54/54 79/79/79 55/55/55
f 55/55/55 79/79/79 80/80/80
f 55/55/55 80/80/80 56/56/56
f 56/56/56 80/80/80 81/81/81
f 56/56/56 81/81/81 57/57/57
f 57/57/57 81/81/81 82/82/82
f 57/57/57 82/82/82 58/58/58
f 58/58/58 82/82/82 83/83/83
f 58/58/58 83/83/83 59/59/59
f 59/59/59 83/83/83 84/84/84
f 59/59/59 84/84/84 60/60/60
f 60/60/60 84/84/84 85/85/85
f 60/60/60 85/85/85 61/61/61
f 61/61/61 85/85/85 86/86/86
f 61/61/61 86/86/86 62/62/62
f 62/62/62 86/86/86 87/87/87
f 62/62/62 87/87/87 63/63/63
f 63/63/63 87/87/87 88/88/88
f 63/63/63 88/88/88 64/64/64
f 64/64/64 88/88/88 89/89/89
f 64/64/64 89/89/89 65/65/65
f 65/65/65 89/89/89 90/90/90
f 65/65/65 90/90/90 66/66/66
f 66/66/66 90/90/90 91/91/91
f 66/66/66 91/91/91 67/67/67
f 67/67/67 91/91/91 92/92/92
f 67/67/67 92/92/92 68/68/68
f 68/68/68 92/92/92 93/93/93
f 68/68/68 93/93/93 69/69/69
f 69/69/69 93/93/93 94/94/94
f 69/69/69 94/94/94 70/70/70
f 70/70/70 94/94/94 95/95/95
f 70/70/70 95/95/95 71/71/71
f 71/71/71 95/95/95 96/96/96
f 71/71/71 96/96/96 72/72/72
f 72/72/72 96/96/96 73/73/73
f 72/72/72 73/73/73 49/49/49
f 73/73/73 97/97/97 98/98/98
f 73/73/73 98/98/98 74/74/74
f 74/74/74 98/98/98 99/99/99
f 74/74/74 99/99/99 75/75/75
f 75/75/75 99/99/99 100/100/100
f 75/75/75 100/100/100 76/76/76
f 76/76/76 100/100/100 101/101/101
f 76/76/76 101/101/101 77/77/77
f 77/77/77 101/101/101 102/102/102
f 77/77/77 102/102/102 78/78/78
f 78/78/78 102/102/102 103/103/103
f 78/78/78 103/103/103 79/79/79
f 79/79/79 103/103/103 104/104/104
f 79/79/79 104/104/104 80/80/80
f 80/80/80 104/104/104 105/105/105
f 80/80/80 105/105/105 81/81/81
f 81/81/81 105/105/105 106/106/106
f 81/81/81 106/106/106 82/82/82
f 82/82/82 106/106/106 107/107/107
f 82/82/82 107/107/107 83/83/83
f 83/83/83 107/107/107 108/108/108
f 83/83/83 108/108/108 84/84/84
f 84/84/84 108/108/108 109/109/109
f 84/84/84 109/109/109 85/85/85
f 85/85/85 109/109/109 110/110/110
f 85/85/85 110/110/110 86/86/86
f 86/86/86 110/110/110 111/111/111
f 86/86/86 111/111/111 87/87/87
f 87/87/87 111/111/111 112/112/112
f 87/87/87 112/112/112 88/88/88
f 88/88/88 112/112/112 113/113/113
f 88/88/88 113/113/113 89/89/89
f 89/89/89 113/113/113 114/114/114
f 89/89/89 114/114/114 90/90/90
f 90/90/90 114/114/114 115/115/115
f 90/90/90 115/115/115 91/91/91
f 91/91/91 115/115/115 116/116/116
f 91/91/91 116/116/116 92/92/92
f 92/92/92 116/116/116 117/117/117
f 92/92/92 117/117/117 93/93/93
f 93/93/93 117/117/117 118/118/118
f 93/93/93 118/118/118 94/94/94
f 94/94/94 118/118/118 119/119/119
f 94/94/94 119/119/119 95/95/95
f 95/95/95 119/119/119 120/120/120
f 95/95/95 120/120/120 96/96/96
f 96/96/96 120/120/120 97/97/97
f 96/96/96 97/97/97 73/73/73
f 121/121/121 1/1/1 2/2/2
f 122/122/122 98/98/98 97/97/97
f 121/121/121 2/2/2 3/3/3
f 122/122/122 99/99/99 98/98/98
f 121/121/121 3/3/3 4/4/4
f 122/122/122 100/100/100 99/99/99
f 121/121/121 4/4/4 5/5/5
f 122/122/122 101/101/101 100/100/100
f 121/121/121 5/5/5 6/6/6
f 122/122/122 102/102/102 101/101/101
f 121/121/121 6/6/6 7/7/7
f 122/122/122 103/103/103 102/102/102
f 121/121/121 7/7/7 8/8/8
f 122/122/122 104/104/104 103/103/103
f 121/121/121 8/8/8 9/9/9
f 122/122/122 105/105/105 104/104/104
f 121/121/121 9/9/9 10/10/10
f 122/122/122 106/106/106 105/105/105
f 121/121/121 10/10/10 11/11/11
f 122/122/122 107/107/107 106/106/106
f 121/121/121 11/11/11 12/12/12
f 122/122/122 108/108/108 107/107/107
f 121/121/121 12/12/12 13/13/13
f 122/122/122 109/109/109 108/108/108
f 121/121/121 13/13/13 14/14/14
f 122/122/122 110/110/110 109/109/109
f 121/121/121 14/14/14 15/15/15
f 122/122/122 111/111/111 110/110/110
f 121/121/121 15/15/15 16/16/16
f 122/122/122 112/112/112 111/111/111
f 121/121/121 16/16/16 17/17/17
f 122/122/122 113/113/113 112/112/112
f 121/121/121 17/17/17 18/18/18
f 122/122/122 114/114/114 113/113/113
f 121/121/121 18/18/18 19/19/19
f 122/122/122 115/115/115 114/114/114
f 121/121/121 19/19/19 20/20/20
f 122/122/122 116/116/116 115/115/115
f 121/121/121 20/20/20 21/21/21
f 122/122/122 117/117/117 116/116/116
f 121/121/121 21/21/21 22/22/22
f 122/122/122 118/118/118 117/117/117
f 121/121/121 22/22/22 23/23/23
f 122/122/122 119/119/119 118/118/118
f 121/121/121 23/23/23 24/24/24
f 122/122/122 120/120/120 119/119/119
f 121/121/121 24/24/24 1/1/1
f 122/122/122 97/97/97 120/120/120
