# Dedicated side cannon pod.
o AssaultPod
v 0.000 0.000 -0.900
v 0.000 0.310 -0.520
v 0.300 0.155 -0.520
v 0.300 -0.155 -0.520
v 0.000 -0.310 -0.520
v -0.300 -0.155 -0.520
v -0.300 0.155 -0.520
v 0.000 0.260 0.720
v 0.250 0.130 0.720
v 0.250 -0.130 0.720
v 0.000 -0.260 0.720
v -0.250 -0.130 0.720
v -0.250 0.130 0.720
v 0.000 0.000 0.960
f 1 3 2
f 1 4 3
f 1 5 4
f 1 6 5
f 1 7 6
f 1 2 7
f 2 3 9
f 2 9 8
f 3 4 10
f 3 10 9
f 4 5 11
f 4 11 10
f 5 6 12
f 5 12 11
f 6 7 13
f 6 13 12
f 7 2 8
f 7 8 13
f 8 9 14
f 9 10 14
f 10 11 14
f 11 12 14
f 12 13 14
f 13 8 14
