# Combat-loop assault hull. Authored for a strong front-view diamond silhouette.
o AssaultHull
v 0.000 0.000 -1.350
v 0.000 0.520 -0.360
v 0.700 0.260 -0.300
v 0.760 -0.230 -0.260
v 0.000 -0.480 -0.320
v -0.760 -0.230 -0.260
v -0.700 0.260 -0.300
v 0.000 0.330 0.760
v 0.460 0.160 0.720
v 0.500 -0.150 0.720
v 0.000 -0.300 0.780
v -0.500 -0.150 0.720
v -0.460 0.160 0.720
v 0.000 0.000 1.080
f 1 3 2
f 1 4 3
f 1 5 4
f 1 6 5
f 1 7 6
f 1 2 7
f 2 3 9
f 2 9 8
f 3 4 10
f 3 10 9
f 4 5 11
f 4 11 10
f 5 6 12
f 5 12 11
f 6 7 13
f 6 13 12
f 7 2 8
f 7 8 13
f 8 9 14
f 9 10 14
f 10 11 14
f 11 12 14
f 12 13 14
f 13 8 14

o LeftBlade
v -0.420 0.120 -0.120
v -1.650 0.060 0.280
v -1.180 -0.090 0.700
v -0.380 -0.120 0.460
v -0.420 0.035 -0.100
v -1.650 -0.045 0.280
v -1.180 -0.180 0.700
v -0.380 -0.205 0.460
f 15 16 17
f 15 17 18
f 19 21 20
f 19 22 21
f 15 19 20
f 15 20 16
f 16 20 21
f 16 21 17
f 17 21 22
f 17 22 18
f 18 22 19
f 18 19 15

o RightBlade
v 0.420 0.120 -0.120
v 1.650 0.060 0.280
v 1.180 -0.090 0.700
v 0.380 -0.120 0.460
v 0.420 0.035 -0.100
v 1.650 -0.045 0.280
v 1.180 -0.180 0.700
v 0.380 -0.205 0.460
f 23 25 24
f 23 26 25
f 27 28 29
f 27 29 30
f 23 24 28
f 23 28 27
f 24 25 29
f 24 29 28
f 25 26 30
f 25 30 29
f 26 23 27
f 26 27 30
